<?xml version="1.0" encoding="UTF-8" standalone="no"?>
<!-- Created with Inkscape (http://www.inkscape.org/) -->

<svg
   width="198.2365mm"
   height="64.930084mm"
   viewBox="0 0 198.2365 64.930084"
   version="1.1"
   id="svg5"
   inkscape:version="1.1.2 (0a00cf5339, 2022-02-04)"
   sodipodi:docname="fibro-logo-v2.svg"
   xmlns:inkscape="http://www.inkscape.org/namespaces/inkscape"
   xmlns:sodipodi="http://sodipodi.sourceforge.net/DTD/sodipodi-0.dtd"
   xmlns="http://www.w3.org/2000/svg"
   xmlns:svg="http://www.w3.org/2000/svg">
  <sodipodi:namedview
     id="namedview7"
     pagecolor="#ffffff"
     bordercolor="#666666"
     borderopacity="1.0"
     inkscape:pageshadow="2"
     inkscape:pageopacity="0.0"
     inkscape:pagecheckerboard="0"
     inkscape:document-units="mm"
     showgrid="false"
     inkscape:zoom="1.4920084"
     inkscape:cx="178.6183"
     inkscape:cy="58.310663"
     inkscape:window-width="1920"
     inkscape:window-height="1009"
     inkscape:window-x="0"
     inkscape:window-y="0"
     inkscape:window-maximized="1"
     inkscape:current-layer="layer1"
     fit-margin-top="0"
     fit-margin-left="0"
     fit-margin-right="0"
     fit-margin-bottom="0" />
  <defs
     id="defs2" />
  <g
     inkscape:groupmode="layer"
     id="layer1"
     inkscape:label="selbsthilfe"
     style="display:inline"
     transform="translate(0.00438769,0.00968012)">
    <text
       xml:space="preserve"
       style="font-style:normal;font-weight:normal;font-size:14.4639px;line-height:1.25;font-family:sans-serif;display:inline;fill:#1761b6;fill-opacity:1;stroke:none;stroke-width:0.264583"
       x="-0.11261065"
       y="11.995357"
       id="text1359"><tspan
         sodipodi:role="line"
         id="tspan1357"
         style="font-style:normal;font-variant:normal;font-weight:normal;font-stretch:normal;font-size:14.4639px;font-family:'Magnolia Script';-inkscape-font-specification:'Magnolia Script, Normal';font-variant-ligatures:normal;font-variant-caps:normal;font-variant-numeric:normal;font-variant-east-asian:normal;fill:#1761b6;fill-opacity:1;stroke-width:0.264583"
         x="-0.11261065"
         y="11.995357">Selbsthilfegruppe Fibromyalgie</tspan></text>
  </g>
  <g
     inkscape:groupmode="layer"
     id="layer7"
     inkscape:label="stgt-vaih"
     transform="translate(0.00438769,0.00968012)">
    <text
       xml:space="preserve"
       style="font-style:normal;font-weight:normal;font-size:11.8181px;line-height:1.25;font-family:sans-serif;fill:#009c00;fill-opacity:1;stroke:none;stroke-width:0.264583"
       x="-0.24074969"
       y="31.887503"
       id="text38448"><tspan
         sodipodi:role="line"
         id="tspan38446"
         style="font-style:normal;font-variant:normal;font-weight:normal;font-stretch:normal;font-size:11.8181px;font-family:'Magnolia Script';-inkscape-font-specification:'Magnolia Script, Normal';font-variant-ligatures:normal;font-variant-caps:normal;font-variant-numeric:normal;font-variant-east-asian:normal;fill:#009c00;fill-opacity:1;stroke-width:0.264583"
         x="-0.24074969"
         y="31.887503">Stuttgart-Vaihingen</tspan></text>
  </g>
  <g
     inkscape:groupmode="layer"
     id="layer8"
     inkscape:label="ico"
     style="display:inline"
     transform="translate(0.00438769,0.00968012)">
    <circle
       style="fill:#1963b8;fill-opacity:1;stroke-width:0.238124"
       id="path63623"
       cx="131.94064"
       cy="29.821074"
       r="4.5" />
    <circle
       style="fill:#009e03;fill-opacity:1;stroke-width:0.238124"
       id="path63623-7"
       cx="158.36089"
       cy="28.30752"
       r="4.5" />
    <path
       style="fill:#009e03;fill-opacity:1;stroke:none"
       d="m 119.81211,20.900411 c -4.2951,8.514916 -0.6216,13.406924 5.66706,19.610175 0.61881,5.992462 -0.2667,15.734587 1.89142,15.955989 1.36092,0.231787 7.78835,-10.509364 10.31793,-15.680451 3.99956,-4.428644 4.79461,-5.048848 6.60472,-7.855924 1.47576,-2.764617 1.57684,-5.261164 1.15579,-7.446611 -5.50138,6.0048 -9.45967,9.695395 -13.4534,10.019444 -6.07709,-0.157292 -8.31923,-5.240704 -12.18352,-14.602622 z"
       id="path63787"
       sodipodi:nodetypes="cccccccc" />
    <path
       style="fill:#1963b8;fill-opacity:1;stroke:none;stroke-width:0.264583px;stroke-linecap:butt;stroke-linejoin:miter;stroke-opacity:1"
       d="m 145.44903,25.483589 c 0.26599,2.06985 0.67337,4.935094 1.4665,5.886586 2.86012,3.746745 4.77688,4.492263 7.55618,8.166056 4.82027,6.371633 8.46393,13.218819 10.35612,13.109483 1.36171,-0.234525 -0.003,-8.614567 -0.41642,-13.659665 3.65613,-5.565035 6.35221,-10.054431 2.40003,-16.717958 -2.27466,11.643832 -5.90761,19.920375 -21.36241,3.215498 z"
       id="path66467"
       sodipodi:nodetypes="ccscccc" />
    <path
       style="fill:#012273;fill-opacity:1;stroke:none;stroke-width:0.264583px;stroke-linecap:butt;stroke-linejoin:miter;stroke-opacity:1"
       d="m 121.55348,48.2376 c -7.85042,10.220202 3.76669,9.642176 14.60297,9.772407 8.82845,0.106101 22.38506,-2.54761 28.23932,-3.688786 16.23689,-3.165072 16.29259,-5.663103 0.76523,-11.954088 28.43155,2.279084 32.49176,5.945807 32.91089,8.645401 1.62407,11.603462 -59.32144,17.887202 -67.94888,11.128131 23.23722,2.923506 73.69793,-8.050841 52.02103,-14.380858 8.77463,7.817344 -14.75984,11.969277 -35.89557,13.711357 C 123.70341,63.329406 103.71409,58.06602 121.55348,48.2376 Z"
       id="path69010"
       sodipodi:nodetypes="cssccccsc" />
  </g>
</svg>
