<?xml version="1.0" encoding="UTF-8" standalone="no"?>
<!-- Created with Inkscape (http://www.inkscape.org/) -->

<svg
   width="198.2365mm"
   height="64.930084mm"
   viewBox="0 0 198.2365 64.930084"
   version="1.1"
   id="svg5"
   inkscape:version="1.1.2 (0a00cf5339, 2022-02-04)"
   sodipodi:docname="fibro-logo-v2-rendered.svg"
   xmlns:inkscape="http://www.inkscape.org/namespaces/inkscape"
   xmlns:sodipodi="http://sodipodi.sourceforge.net/DTD/sodipodi-0.dtd"
   xmlns="http://www.w3.org/2000/svg"
   xmlns:svg="http://www.w3.org/2000/svg">
  <sodipodi:namedview
     id="namedview7"
     pagecolor="#ffffff"
     bordercolor="#666666"
     borderopacity="1.0"
     inkscape:pageshadow="2"
     inkscape:pageopacity="0.0"
     inkscape:pagecheckerboard="0"
     inkscape:document-units="mm"
     showgrid="false"
     inkscape:zoom="1.4920084"
     inkscape:cx="60.656495"
     inkscape:cy="58.310664"
     inkscape:window-width="1920"
     inkscape:window-height="1009"
     inkscape:window-x="0"
     inkscape:window-y="0"
     inkscape:window-maximized="1"
     inkscape:current-layer="layer1"
     fit-margin-top="0"
     fit-margin-left="0"
     fit-margin-right="0"
     fit-margin-bottom="0" />
  <defs
     id="defs2" />
  <g
     inkscape:groupmode="layer"
     id="layer1"
     inkscape:label="selbsthilfe"
     style="display:inline"
     transform="translate(0.00438769,0.00968012)">
    <g
       aria-label="Selbsthilfegruppe Fibromyalgie"
       id="text1359"
       style="font-size:14.4639px;line-height:1.25;display:inline;fill:#1761b6;stroke-width:0.264583">
      <path
         d="m 4.9931459,1.9429463 c 1.2294315,0 1.7935236,0.6219477 1.7935236,1.4319261 0,1.0558647 -0.723195,1.4608539 -0.723195,1.4608539 0,0 0.2603502,0.3760613 0.9546174,0.3760613 0.8822978,0 1.4174621,-0.5930198 1.4174621,-1.6054928 0,-1.4319261 -1.3740704,-2.4588629 -3.4279442,-2.4588629 -2.5167185,0 -3.8763251,1.4753177 -3.8763251,3.0808106 0,1.0414007 0.4483809,1.865843 1.6633485,2.5601102 l 1.5476372,0.8822979 c 0.9690813,0.5496282 1.3306788,1.0703285 1.3306788,1.7935235 0,0.9401539 -0.8099784,1.7356679 -2.1117294,1.7356679 -1.1137202,0 -1.7356679,-0.59302 -1.7356679,-1.4608538 0,-0.7376589 0.5062365,-1.2005036 0.5062365,-1.2005036 0,0 -0.1880307,-0.3760614 -0.8822979,-0.3760614 -0.69426718,0 -1.27282316,0.4628448 -1.27282316,1.5042455 0,1.3451423 1.31621486,2.3286883 3.29776916,2.3286883 2.6324297,0 4.0498918,-1.460854 4.0498918,-3.0663472 0,-1.0124729 -0.4628447,-1.865843 -1.6922762,-2.589038 L 3.9951368,5.2696432 C 3.3297975,4.879118 2.9826639,4.300562 2.9826639,3.7075421 c 0,-1.0558647 0.8244422,-1.7645958 2.010482,-1.7645958 z"
         style="font-family:'Magnolia Script';-inkscape-font-specification:'Magnolia Script, Normal'"
         id="path969" />
      <path
         d="m 11.993657,11.995357 c 2.212977,0 3.601511,-1.504246 3.731686,-2.1406576 0.05786,-0.2603502 -0.04339,-0.3760614 -0.231422,-0.3760614 -0.390526,0.607484 -1.272824,1.37407 -2.820461,1.37407 -1.229431,0 -1.981554,-0.838906 -2.068337,-1.9236982 2.545646,-0.4773086 4.064355,-1.3451426 4.064355,-2.6613575 0,-0.7376589 -0.59302,-1.5042455 -2.068337,-1.5042455 -1.923699,0 -3.8763254,1.5476372 -3.8763254,4.1077474 0,1.9526268 1.3740704,3.1242028 3.2688414,3.1242028 z m 0.621948,-6.5087553 c 0.303741,0 0.506236,0.2024946 0.506236,0.5062365 0,0.9546174 -0.737659,1.8369153 -2.502255,2.2563684 0.159103,-1.8079875 1.171576,-2.7626049 1.996019,-2.7626049 z"
         style="font-family:'Magnolia Script';-inkscape-font-specification:'Magnolia Script, Normal'"
         id="path971" />
      <path
         d="m 15.522824,8.8132986 c -0.101247,0.578556 -0.130175,1.0847925 -0.130175,1.3740704 0,1.157112 0.694267,1.807988 1.692276,1.807988 1.402998,0 2.531183,-1.374071 2.675822,-2.1406576 0.04339,-0.2603502 -0.08678,-0.3760614 -0.274815,-0.3760614 -0.376061,0.781051 -1.026936,1.258359 -1.605492,1.258359 -0.520701,0 -0.766587,-0.419453 -0.621948,-1.2728229 l 1.417462,-8.0419282 c 0.173567,-1.01247293 0.04339,-1.43192602 -1.070328,-1.43192602 -0.535165,0 -0.752123,0.1301751 -0.752123,0.1301751 0,0 0.144639,0.33266969 -0.01446,1.24389532 z"
         style="font-family:'Magnolia Script';-inkscape-font-specification:'Magnolia Script, Normal'"
         id="path973" />
      <path
         d="m 22.494406,1.4222459 c 0.173566,-1.01247293 0.04339,-1.43192602 -1.070329,-1.43192602 -0.535164,0 -0.752123,0.1301751 -0.752123,0.1301751 0,0 0.144639,0.33266969 -0.01446,1.24389532 L 19.26896,9.5220297 c -0.04339,0.289278 -0.07232,0.5351643 -0.07232,0.7521233 0,0.433916 0.101248,0.737658 0.318206,0.998009 0.376062,0.462844 1.272823,0.723195 2.574574,0.723195 1.70674,0 3.080811,-1.157112 3.673831,-2.8927804 1.200504,-0.1012473 2.155121,-0.9112256 2.241904,-1.431926 0.02893,-0.2169585 -0.07232,-0.3615975 -0.26035,-0.3615975 0,0 -0.679803,1.012473 -1.807987,1.1281842 0.07232,-0.3905253 0.130175,-0.8099784 0.130175,-1.2583593 0,-1.5042456 -0.737659,-2.4154712 -2.082802,-2.4154712 -0.925689,0 -1.750132,0.6074837 -2.357615,1.7356679 z m 0.969081,6.1471574 c 0,0.4628448 0.173567,0.8533701 0.5207,1.1137202 -0.404989,1.4753175 -1.301751,2.5890385 -2.314224,2.5890385 -0.274814,0 -0.491772,-0.04339 -0.679803,-0.101248 -0.01446,-0.07232 -0.02893,-0.216958 -0.02893,-0.404989 0,-0.188031 0.01446,-0.433917 0.07232,-0.752123 0.274814,-1.4753174 0.679803,-2.3431514 1.099256,-2.9940269 0.491773,-0.7810506 0.911226,-1.1426481 1.345143,-1.1426481 0.390525,0 0.621947,0.2169585 0.708731,0.7087311 -0.462845,0.1012473 -0.723195,0.5062365 -0.723195,0.9835452 z"
         style="font-family:'Magnolia Script';-inkscape-font-specification:'Magnolia Script, Normal'"
         id="path975" />
      <path
         d="M 29.813113,7.3090531 C 29.335804,7.0631668 29.104382,6.8172805 29.104382,6.3978274 c 0,-0.5062365 0.390525,-0.9112257 1.186039,-0.9112257 0.809979,0 1.229432,0.5496282 1.229432,1.2294315 0,0.2603502 -0.07232,0.4194531 -0.07232,0.4194531 0,0 0.202495,0.2024946 0.694267,0.2024946 0.506237,0 0.954618,-0.3182058 0.954618,-0.867834 0,-0.7521228 -0.838906,-1.7067401 -2.63243,-1.7067401 -2.053874,0 -3.066347,0.9546173 -3.066347,2.1261932 0,0.9690813 0.564092,1.4319261 1.25836,1.8079874 l 1.417462,0.7521228 c 0.5207,0.2748141 0.708731,0.5640918 0.708731,0.9112258 0,0.477309 -0.390525,0.911226 -1.214968,0.911226 -0.824442,-0.01446 -1.200503,-0.520701 -1.200503,-1.229432 0,-0.2603501 0.07232,-0.419453 0.07232,-0.419453 0,0 -0.202494,-0.2024946 -0.694267,-0.2024946 -0.506237,0 -0.954617,0.3182058 -0.954617,0.8678336 0,0.752123 0.78105,1.706741 2.632429,1.706741 2.097266,0 3.066347,-0.983546 3.066347,-2.1261937 0,-0.7665867 -0.376061,-1.3596065 -1.431926,-1.9092347 z"
         style="font-family:'Magnolia Script';-inkscape-font-specification:'Magnolia Script, Normal'"
         id="path977" />
      <path
         d="m 34.022099,4.7634068 c -0.318206,0 -0.491773,0.1735667 -0.491773,0.419453 0,0.1880307 0.101247,0.3037419 0.101247,0.3037419 h 0.940154 l -0.535164,3.0518829 c -0.130175,0.7376588 -0.159103,1.2149675 -0.159103,1.5476374 0,1.157112 0.838906,1.909235 1.909234,1.909235 1.374071,0 2.545647,-1.25836 2.762605,-2.1406576 0.05786,-0.2458863 -0.07232,-0.3760614 -0.26035,-0.3760614 -0.318206,0.607484 -0.911226,1.258359 -1.735668,1.258359 -0.679803,0 -0.969081,-0.477308 -0.824442,-1.2728229 l 0.694267,-3.9775724 h 1.171576 c 0.318206,0 0.491773,-0.1735668 0.491773,-0.4194531 0,-0.1880306 -0.101248,-0.3037418 -0.101248,-0.3037418 h -1.431926 l 0.130175,-0.723195 c 0.188031,-1.012473 0.04339,-1.4319261 -1.070328,-1.4319261 -0.535165,0 -0.752123,0.1301751 -0.752123,0.1301751 0,0 0.159103,0.3326697 -0.01446,1.2438954 l -0.144639,0.7810506 z"
         style="font-family:'Magnolia Script';-inkscape-font-specification:'Magnolia Script, Normal'"
         id="path979" />
      <path
         d="m 44.985711,10.736997 c -0.549628,0 -0.737659,-0.462844 -0.59302,-1.2728229 L 44.739825,7.4247643 C 44.812145,6.9908473 44.87,6.5713942 44.87,6.2531884 c 0,-0.8967618 -0.578556,-1.4897816 -1.489782,-1.4897816 -1.186039,0 -2.270832,1.1571119 -2.834924,2.0972654 l 0.954618,-5.4384263 c 0.173566,-1.01247293 0.04339,-1.43192602 -1.070329,-1.43192602 -0.535164,0 -0.752123,0.1301751 -0.752123,0.1301751 0,0 0.144639,0.33266969 -0.01446,1.24389532 L 38.057503,10.56343 c -0.173566,1.012473 -0.04339,1.431927 1.070329,1.431927 0.535164,0 0.752123,-0.130176 0.752123,-0.130176 0,0 -0.144639,-0.332669 0.01446,-1.243895 0.433917,-2.429935 1.822451,-4.5850561 2.733677,-4.5850561 0.318206,0 0.462845,0.2169585 0.347133,0.9112257 l -0.274814,1.591029 c -0.115711,0.708731 -0.216958,1.2728231 -0.216958,1.6488844 0,1.084793 0.665339,1.807988 1.750132,1.807988 1.345142,0 2.401007,-1.374071 2.545646,-2.1406576 0.04339,-0.2603502 -0.08678,-0.3760614 -0.274814,-0.3760614 -0.419453,0.838906 -0.954618,1.258359 -1.51871,1.258359 z"
         style="font-family:'Magnolia Script';-inkscape-font-specification:'Magnolia Script, Normal'"
         id="path981" />
      <path
         d="m 46.489933,8.8132986 c -0.101248,0.578556 -0.130175,1.0847925 -0.130175,1.3740704 0,1.157112 0.694267,1.807988 1.692276,1.807988 1.402998,0 2.444399,-1.374071 2.589038,-2.1406576 0.04339,-0.2603502 -0.08678,-0.3760614 -0.274814,-0.3760614 -0.376062,0.781051 -1.026937,1.258359 -1.51871,1.258359 -0.5207,0 -0.766586,-0.404989 -0.621947,-1.2728229 l 0.564092,-3.2688413 c 0.173567,-1.012473 0.04339,-1.431926 -1.070329,-1.431926 -0.535164,0 -0.752123,0.1301751 -0.752123,0.1301751 0,0 0.144639,0.3182057 -0.01446,1.2438953 z m 0.969081,-6.2194768 c 0,0.5062365 0.347134,0.867834 0.867834,0.867834 0.636412,0 1.041401,-0.4917726 1.041401,-0.9980091 0,-0.5207004 -0.347134,-0.9112257 -0.896762,-0.9112257 -0.549628,0 -1.012473,0.4483809 -1.012473,1.0414008 z"
         style="font-family:'Magnolia Script';-inkscape-font-specification:'Magnolia Script, Normal'"
         id="path983" />
      <path
         d="m 50.351768,8.8132986 c -0.101247,0.578556 -0.130175,1.0847925 -0.130175,1.3740704 0,1.157112 0.694267,1.807988 1.692276,1.807988 1.402999,0 2.531183,-1.374071 2.675822,-2.1406576 0.04339,-0.2603502 -0.08678,-0.3760614 -0.274814,-0.3760614 -0.376062,0.781051 -1.026937,1.258359 -1.605493,1.258359 -0.520701,0 -0.766587,-0.419453 -0.621948,-1.2728229 l 1.417462,-8.0419282 c 0.173567,-1.01247293 0.04339,-1.43192602 -1.070328,-1.43192602 -0.535165,0 -0.752123,0.1301751 -0.752123,0.1301751 0,0 0.144639,0.33266969 -0.01446,1.24389532 z"
         style="font-family:'Magnolia Script';-inkscape-font-specification:'Magnolia Script, Normal'"
         id="path985" />
      <path
         d="m 54.459499,4.7634068 c -0.318206,0 -0.491773,0.1735667 -0.491773,0.419453 0,0.1880307 0.101247,0.3037419 0.101247,0.3037419 h 0.92569 l -1.562101,9.0110093 c -0.202495,1.157112 -0.564092,1.51871 -1.099257,1.51871 -0.318205,0 -0.506236,-0.188031 -0.506236,-0.188031 0,0 -0.115711,0.101247 -0.115711,0.404989 0,0.462845 0.419453,0.824442 1.171576,0.824442 1.229431,0 2.039409,-0.650875 2.372079,-2.545646 l 1.591029,-9.0254733 h 1.18604 c 0.318206,0 0.491772,-0.1735668 0.491772,-0.4194531 0,-0.1880306 -0.101247,-0.3037418 -0.101247,-0.3037418 h -1.44639 l 0.347134,-2.024946 c 0.26035,-1.5476373 0.795514,-2.02494594 1.243895,-2.02494594 0.33267,0 0.564092,0.1880307 0.564092,0.63641154 0,0.8389062 -0.59302,1.4319261 -0.59302,1.4319261 0,0 0.188031,0.3471336 0.708731,0.3471336 0.752123,0 1.272824,-0.6219477 1.272824,-1.5042456 0,-0.86783394 -0.650876,-1.63442062 -1.952627,-1.63442062 -1.648884,0 -2.777069,0.91122568 -3.196522,3.35562472 l -0.245886,1.4174622 z"
         style="font-family:'Magnolia Script';-inkscape-font-specification:'Magnolia Script, Normal'"
         id="path987" />
      <path
         d="m 61.619126,11.995357 c 2.212977,0 3.601511,-1.504246 3.731686,-2.1406576 0.05786,-0.2603502 -0.04339,-0.3760614 -0.231422,-0.3760614 -0.390525,0.607484 -1.272823,1.37407 -2.820461,1.37407 -1.229431,0 -1.981554,-0.838906 -2.068337,-1.9236982 2.545646,-0.4773086 4.064356,-1.3451426 4.064356,-2.6613575 0,-0.7376589 -0.59302,-1.5042455 -2.068338,-1.5042455 -1.923699,0 -3.876325,1.5476372 -3.876325,4.1077474 0,1.9526268 1.37407,3.1242028 3.268841,3.1242028 z m 0.621948,-6.5087553 c 0.303742,0 0.506236,0.2024946 0.506236,0.5062365 0,0.9546174 -0.737659,1.8369153 -2.502254,2.2563684 0.159103,-1.8079875 1.171576,-2.7626049 1.996018,-2.7626049 z"
         style="font-family:'Magnolia Script';-inkscape-font-specification:'Magnolia Script, Normal'"
         id="path989" />
      <path
         d="m 71.700439,5.9494465 c 0.130175,-0.7810506 0.332669,-1.0414008 0.332669,-1.0414008 0,0 -0.231422,-0.1446389 -0.723195,-0.1446389 -0.708731,0 -1.070328,0.1880306 -1.30175,0.708731 -0.33267,-0.4194531 -0.838907,-0.708731 -1.562102,-0.708731 -1.692276,0 -3.572583,1.5187094 -3.572583,4.744159 0,1.6922762 0.940154,2.4877912 2.126193,2.4877912 0.752123,0 1.475318,-0.462845 2.053874,-1.359607 l -0.173567,1.026937 c -1.186039,0.578556 -1.938162,1.012473 -2.646893,1.634421 -0.708731,0.607483 -1.214968,1.388534 -1.214968,2.241904 0,0.896762 0.636412,1.518709 1.619957,1.518709 2.140657,0 3.4858,-1.865843 4.049892,-5.221467 l 0.02893,-0.173567 c 0.85337,-0.419453 1.764595,-0.92569 2.29976,-1.330679 0.289278,-0.216958 0.448381,-0.3760613 0.477308,-0.5207003 0.04339,-0.2169585 -0.101247,-0.3326697 -0.274814,-0.3326697 -0.867834,0.708731 -2.357615,1.301751 -2.357615,1.301751 z m -4.122212,4.7875505 c -0.535164,0 -0.85337,-0.390525 -0.85337,-1.2005034 0,-2.3286878 1.113721,-3.7895417 2.097266,-3.7895417 0.549628,0 0.824442,0.4049892 0.954617,0.6942672 l -0.130175,0.6798033 c -0.274814,1.44639 -1.041401,3.6159746 -2.068338,3.6159746 z m -1.084792,5.366107 c -0.448381,0 -0.665339,-0.274814 -0.665339,-0.650875 0,-0.506237 0.289278,-0.99801 0.85337,-1.547638 0.419453,-0.419453 1.084792,-0.838906 2.039409,-1.330678 -0.433917,2.314223 -1.214967,3.529191 -2.22744,3.529191 z"
         style="font-family:'Magnolia Script';-inkscape-font-specification:'Magnolia Script, Normal'"
         id="path991" />
      <path
         d="m 75.605681,6.1953328 c 0.173567,-0.9690813 0.04339,-1.431926 -1.070329,-1.431926 -0.535164,0 -0.752123,0.1301751 -0.752123,0.1301751 0,0 0.144639,0.3326696 -0.01446,1.2438953 l -0.76659,4.4259528 c -0.173567,1.012473 -0.04339,1.431927 1.070328,1.431927 0.535165,0 0.752123,-0.130176 0.752123,-0.130176 0,0 -0.144639,-0.303741 0,-1.157112 0.347134,-2.0394094 0.824443,-2.9361711 1.374071,-3.7027578 0.477308,-0.6653394 0.795514,-0.8533701 1.026937,-0.8533701 0.216958,0 0.303741,0.1157112 0.303741,0.3182058 0,0.3905253 -0.18803,0.723195 -0.18803,0.723195 0,0 0.274814,0.086783 0.650875,0.086783 0.708731,0 1.200504,-0.578556 1.200504,-1.3885344 0,-0.7376589 -0.448381,-1.1281841 -1.157112,-1.1281841 -0.650876,0 -1.619957,0.5062364 -2.545646,2.0683376 z"
         style="font-family:'Magnolia Script';-inkscape-font-specification:'Magnolia Script, Normal'"
         id="path993" />
      <path
         d="m 83.734378,10.187369 c 0,1.157112 0.694268,1.807988 1.692277,1.807988 1.402998,0 2.444399,-1.374071 2.589038,-2.1406576 0.04339,-0.2603502 -0.08678,-0.3760614 -0.274814,-0.3760614 -0.376062,0.781051 -1.026937,1.258359 -1.51871,1.258359 -0.5207,0 -0.766586,-0.404989 -0.621947,-1.2728229 l 0.564092,-3.2688413 c 0.173566,-1.012473 0.04339,-1.431926 -1.070329,-1.431926 -0.535164,0 -0.752123,0.1301751 -0.752123,0.1301751 0,0 0.130175,0.3037418 0,1.0992563 -0.216958,1.2872871 -0.838906,2.8349243 -1.460854,3.7750778 -0.376061,0.578556 -0.752122,0.969081 -1.070328,0.969081 -0.419453,0 -0.621948,-0.376061 -0.477309,-1.2005034 l 0.578556,-3.3411608 c 0.173567,-1.012473 0.04339,-1.431926 -1.070328,-1.431926 -0.535165,0 -0.752123,0.1301751 -0.752123,0.1301751 0,0 0.144639,0.3326696 -0.01446,1.2438953 l -0.419453,2.4010074 c -0.130175,0.7521227 -0.173567,1.2438953 -0.173567,1.7790594 0,0.998009 0.607484,1.677813 1.576565,1.677813 0.795515,0 1.431926,-0.40499 2.03941,-1.229432 0.231422,-0.303742 0.448381,-0.665339 0.650875,-1.0703285 -0.01446,0.2024946 -0.01446,0.3615975 -0.01446,0.4917725 z"
         style="font-family:'Magnolia Script';-inkscape-font-specification:'Magnolia Script, Normal'"
         id="path995" />
      <path
         d="m 90.141866,6.1953328 c 0.173566,-1.0269369 0.04339,-1.431926 -1.070329,-1.431926 -0.535164,0 -0.752123,0.1301751 -0.752123,0.1301751 0,0 0.144639,0.3326696 -0.01446,1.2438953 L 86.65607,15.625795 c -0.173567,1.012473 -0.04339,1.431926 1.070328,1.431926 0.535165,0 0.752123,-0.130175 0.752123,-0.130175 0,0 -0.144639,-0.332669 0.01446,-1.243895 l 0.766587,-4.397026 c 0.404989,0.433917 0.983545,0.708732 1.677812,0.708732 1.402998,0 2.733677,-1.084793 3.297769,-2.8927804 1.18604,-0.1157112 2.126193,-0.9256895 2.212977,-1.431926 0.02893,-0.2169585 -0.07232,-0.3615975 -0.26035,-0.3615975 0,0 -0.679804,0.9980091 -1.793524,1.1281842 0.07232,-0.3760614 0.115711,-0.7810506 0.115711,-1.2149676 0,-1.5042456 -0.737659,-2.4588629 -2.082801,-2.4588629 -0.911226,0 -1.721204,0.5930198 -2.328688,1.6922762 z m 1.764595,1.3740705 c 0,0.4773087 0.188031,0.867834 0.535165,1.142648 -0.361598,1.3740707 -1.142648,2.2997597 -1.938163,2.2997597 -0.578556,0 -0.911226,-0.318205 -1.099256,-0.621947 l 0.101247,-0.5496285 c 0.26035,-1.3162148 0.665339,-2.1695849 1.070329,-2.8204604 0.491772,-0.7810506 0.911225,-1.1426481 1.345142,-1.1426481 0.376062,0 0.621948,0.2169585 0.708731,0.7087311 -0.462844,0.1012473 -0.723195,0.5062365 -0.723195,0.9835452 z"
         style="font-family:'Magnolia Script';-inkscape-font-specification:'Magnolia Script, Normal'"
         id="path997" />
      <path
         d="m 104.31647,8.7699069 c 0.1591,-0.1446389 0.18803,-0.3905252 0.0434,-0.4917725 0,0 -0.62195,0.2458863 -1.59103,0.2603502 h -0.3182 c 0.0723,-0.4194531 0.13017,-0.8533701 0.13017,-1.3162149 0,-1.5042456 -0.73766,-2.4588629 -2.0828,-2.4588629 -0.911225,0 -1.721203,0.5930198 -2.328687,1.6922762 l 0.04339,-0.2603502 c 0.173566,-1.012473 0.04339,-1.431926 -1.070329,-1.431926 -0.535164,0 -0.752123,0.1301751 -0.752123,0.1301751 0,0 0.144639,0.3326696 -0.01446,1.2438953 l -1.648884,9.4883178 c -0.173567,1.012473 -0.04339,1.431926 1.070328,1.431926 0.535165,0 0.752123,-0.130175 0.752123,-0.130175 0,0 -0.144639,-0.332669 0.01446,-1.243895 l 0.766587,-4.397026 c 0.404989,0.433917 0.983545,0.708732 1.677812,0.708732 1.403003,0 2.733683,-1.084793 3.297773,-2.8783165 h 0.23142 c 0.78105,0 1.53317,-0.1157112 1.77906,-0.3471336 z M 98.646622,7.0197751 c 0.491772,-0.7810506 0.911225,-1.1426481 1.345142,-1.1426481 0.376066,0 0.621946,0.2169585 0.708736,0.7087311 -0.46285,0.1012473 -0.7232,0.5062365 -0.7232,0.9835452 0,0.4628448 0.1591,0.8389062 0.54963,1.1137202 -0.3616,1.3885345 -1.14265,2.3286875 -1.952628,2.3286875 -0.578556,0 -0.911226,-0.318205 -1.099256,-0.621947 l 0.101247,-0.5496285 c 0.26035,-1.3162148 0.665339,-2.1695849 1.070329,-2.8204604 z"
         style="font-family:'Magnolia Script';-inkscape-font-specification:'Magnolia Script, Normal'"
         id="path999" />
      <path
         d="m 107.41173,4.7634068 c -1.80799,0 -3.81847,1.5042455 -3.81847,4.0932835 0,1.7212037 1.14265,3.1386667 3.1242,3.1386667 1.44639,0 2.41547,-0.867834 2.51672,-1.489782 0.0289,-0.173567 -0.0579,-0.26035 -0.23142,-0.26035 0,0 -0.37606,0.607483 -1.35961,0.607483 -1.27282,0 -2.02495,-0.824442 -2.16958,-1.9236982 1.89477,-0.3760613 4.06435,-1.0558646 4.06435,-2.6468936 0,-0.7810506 -0.57856,-1.5187094 -2.12619,-1.5187094 z m 0.0578,0.7231949 c 0.28928,0 0.5207,0.144639 0.5207,0.5351643 0,0.9112257 -0.75212,1.8079875 -2.51671,2.2274406 0.14463,-1.6054929 1.05586,-2.7626049 1.99601,-2.7626049 z"
         style="font-family:'Magnolia Script';-inkscape-font-specification:'Magnolia Script, Normal'"
         id="path1001" />
      <path
         d="m 117.39178,1.1474319 c -2.67582,0 -3.94864,1.0414007 -3.94864,2.4733268 0,0.867834 0.57855,1.4463899 1.5187,1.4463899 0.73766,0 1.09926,-0.4628447 1.09926,-0.8099783 0,-0.086783 -0.0145,-0.1301751 -0.0145,-0.1301751 0,0 -0.0868,0.043392 -0.24589,0.043392 -0.3616,0 -0.57855,-0.2603502 -0.57855,-0.6653394 0,-0.8244423 0.65087,-1.5621012 1.96709,-1.5621012 h 0.13017 c 0,0.1880307 -0.0145,0.3905253 -0.0723,0.7087311 l -1.35961,7.7671143 c -0.18803,1.11372 0.0145,1.576565 1.0848,1.576565 0.59302,0 0.82444,-0.144639 0.82444,-0.144639 0,0 -0.1591,-0.361598 0.0145,-1.374071 l 0.66534,-3.8040052 c 0.75213,0.072319 1.37407,0.1880307 2.01048,0.1880307 0.75213,0 0.99801,-0.3326697 0.99801,-0.7087311 0,-0.2748141 -0.11571,-0.3905253 -0.11571,-0.3905253 0,0 -0.33267,0.057856 -0.85337,0.057856 h -1.89477 l 0.62195,-3.5147276 c 2.29976,0.5062365 2.9651,1.0847925 4.1656,1.0847925 1.05587,0 1.61996,-0.7087311 1.61996,-1.5765651 0,-0.2314224 -0.0868,-0.4917726 -0.1591,-0.5640921 0,0 -0.5207,0.2314224 -1.35961,0.2314224 -2.87832,0 -4.5272,-0.3326696 -6.11823,-0.3326696 z m 4.59952,7.6658667 c -0.10125,0.578556 -0.13017,1.0847925 -0.13017,1.3740704 0,1.157112 0.69426,1.807988 1.69227,1.807988 1.403,0 2.4444,-1.374071 2.58904,-2.1406576 0.0434,-0.2603502 -0.0868,-0.3760614 -0.27481,-0.3760614 -0.37607,0.781051 -1.02694,1.258359 -1.51871,1.258359 -0.5207,0 -0.76659,-0.404989 -0.62195,-1.2728229 l 0.56409,-3.2688413 c 0.17357,-1.012473 0.0434,-1.431926 -1.07033,-1.431926 -0.53516,0 -0.75212,0.1301751 -0.75212,0.1301751 0,0 0.14464,0.3182057 -0.0145,1.2438953 z"
         style="font-family:'Magnolia Script';-inkscape-font-specification:'Magnolia Script, Normal'"
         id="path1003" />
      <path
         d="m 128.8761,1.4222459 c 0.17357,-1.01247293 0.0434,-1.43192602 -1.07032,-1.43192602 -0.53517,0 -0.75213,0.1301751 -0.75213,0.1301751 0,0 0.14464,0.33266969 -0.0145,1.24389532 l -1.38854,8.1576394 c -0.0434,0.289278 -0.0723,0.5351643 -0.0723,0.7521233 0,0.433916 0.10124,0.737658 0.3182,0.998009 0.37606,0.462844 1.27282,0.723195 2.57457,0.723195 1.70675,0 3.08082,-1.157112 3.67384,-2.8927804 1.2005,-0.1012473 2.15512,-0.9112256 2.2419,-1.431926 0.0289,-0.2169585 -0.0723,-0.3615975 -0.26035,-0.3615975 0,0 -0.6798,1.012473 -1.80799,1.1281842 0.0723,-0.3905253 0.13018,-0.8099784 0.13018,-1.2583593 0,-1.5042456 -0.73766,-2.4154712 -2.0828,-2.4154712 -0.92569,0 -1.75014,0.6074837 -2.35762,1.7356679 z m 0.96909,6.1471574 c 0,0.4628448 0.17356,0.8533701 0.5207,1.1137202 -0.40499,1.4753175 -1.30176,2.5890385 -2.31423,2.5890385 -0.27481,0 -0.49177,-0.04339 -0.6798,-0.101248 -0.0145,-0.07232 -0.0289,-0.216958 -0.0289,-0.404989 0,-0.188031 0.0145,-0.433917 0.0723,-0.752123 0.27481,-1.4753174 0.6798,-2.3431514 1.09926,-2.9940269 0.49177,-0.7810506 0.91122,-1.1426481 1.34514,-1.1426481 0.39052,0 0.62195,0.2169585 0.70873,0.7087311 -0.46284,0.1012473 -0.72319,0.5062365 -0.72319,0.9835452 z"
         style="font-family:'Magnolia Script';-inkscape-font-specification:'Magnolia Script, Normal'"
         id="path1005" />
      <path
         d="m 136.13695,6.1953328 c 0.17357,-0.9690813 0.0434,-1.431926 -1.07032,-1.431926 -0.53517,0 -0.75213,0.1301751 -0.75213,0.1301751 0,0 0.14464,0.3326696 -0.0145,1.2438953 l -0.76659,4.4259528 c -0.17357,1.012473 -0.0434,1.431927 1.07033,1.431927 0.53516,0 0.75212,-0.130176 0.75212,-0.130176 0,0 -0.14464,-0.303741 0,-1.157112 0.34714,-2.0394094 0.82445,-2.9361711 1.37407,-3.7027578 0.47731,-0.6653394 0.79552,-0.8533701 1.02694,-0.8533701 0.21696,0 0.30374,0.1157112 0.30374,0.3182058 0,0.3905253 -0.18803,0.723195 -0.18803,0.723195 0,0 0.27482,0.086783 0.65088,0.086783 0.70873,0 1.2005,-0.578556 1.2005,-1.3885344 0,-0.7376589 -0.44838,-1.1281841 -1.15711,-1.1281841 -0.65088,0 -1.61996,0.5062364 -2.54565,2.0683376 z"
         style="font-family:'Magnolia Script';-inkscape-font-specification:'Magnolia Script, Normal'"
         id="path1007" />
      <path
         d="m 143.87513,4.7634068 c -2.47332,0 -4.0065,1.8513791 -4.0065,4.4693449 0,1.7935233 1.12819,2.7626053 2.66136,2.7626053 1.96709,0 3.29777,-1.171576 3.78954,-2.8927804 1.15711,-0.144639 2.06834,-0.9256895 2.15512,-1.431926 0.0289,-0.2169585 -0.0723,-0.3615975 -0.26035,-0.3615975 0,0 -0.66534,0.9690813 -1.75013,1.1281842 0.0434,-0.289278 0.0723,-0.5930199 0.0723,-0.9112257 0,-1.6488846 -0.96908,-2.7626048 -2.66136,-2.7626048 z m 0.0579,2.8059965 c 0,0.4773087 0.18803,0.867834 0.54963,1.142648 -0.37606,1.7356677 -1.02694,2.5601107 -1.80799,2.5601107 -0.60748,0 -0.95462,-0.506237 -0.95462,-1.4174626 0,-0.3615975 0.0579,-1.1137203 0.13018,-1.4897816 0.40499,-2.1551211 1.15711,-2.89278 1.8803,-2.89278 0.53517,0 0.86784,0.3905253 0.94016,1.1137203 -0.47731,0.1012473 -0.73766,0.4917726 -0.73766,0.9835452 z"
         style="font-family:'Magnolia Script';-inkscape-font-specification:'Magnolia Script, Normal'"
         id="path1009" />
      <path
         d="m 157.96294,10.736997 c -0.5207,0 -0.73766,-0.419453 -0.59302,-1.2728229 l 0.34713,-2.0394098 c 0.0723,-0.433917 0.13018,-0.8533701 0.13018,-1.1715759 0,-0.8967618 -0.57856,-1.4897816 -1.48978,-1.4897816 -1.02694,0 -1.90924,0.998009 -2.37208,1.8224513 0,-0.1157112 0.0145,-0.2169585 0.0145,-0.3182058 0,-0.9401535 -0.59302,-1.5042455 -1.50424,-1.5042455 -0.99801,0 -1.85138,0.9835451 -2.32869,1.7790596 l 0.0579,-0.3471336 c 0.17357,-1.012473 0.0434,-1.431926 -1.07033,-1.431926 -0.53516,0 -0.75212,0.1301751 -0.75212,0.1301751 0,0 0.14464,0.3326696 -0.0145,1.2438953 L 147.6213,10.56343 c -0.17357,1.012473 -0.0434,1.431927 1.07033,1.431927 0.53516,0 0.75212,-0.130176 0.75212,-0.130176 0,0 -0.14464,-0.332669 0.0145,-1.243895 0.4773,-2.6758213 1.60549,-4.5850561 2.31422,-4.5850561 0.34713,0 0.44838,0.289278 0.33267,0.9112257 l -0.63641,3.6159744 c -0.17357,1.012473 -0.0434,1.431927 1.07033,1.431927 0.53516,0 0.75212,-0.130176 0.75212,-0.130176 0,0 -0.14464,-0.332669 0.0145,-1.243895 0.44838,-2.4733267 1.5621,-4.5850561 2.29976,-4.5850561 0.31821,0 0.46285,0.2314224 0.34714,0.9112257 l -0.27482,1.591029 c -0.0868,0.5062364 -0.21696,1.2728231 -0.21696,1.6488844 0,1.084793 0.66534,1.807988 1.75014,1.807988 1.34514,0 2.41547,-1.402999 2.54564,-2.1406576 0.0434,-0.2603502 -0.0868,-0.3760614 -0.27481,-0.3760614 -0.37606,0.781051 -0.94015,1.258359 -1.51871,1.258359 z"
         style="font-family:'Magnolia Script';-inkscape-font-specification:'Magnolia Script, Normal'"
         id="path1011" />
      <path
         d="m 166.00485,6.1953328 c 0.17356,-1.012473 0.0434,-1.431926 -1.07033,-1.431926 -0.53517,0 -0.75213,0.1301751 -0.75213,0.1301751 0,0 0.15911,0.3326696 -0.0145,1.2438953 -0.28928,1.44639 -0.86783,2.7626048 -1.43193,3.6304388 -0.37606,0.578556 -0.75212,0.969081 -1.07032,0.969081 -0.41946,0 -0.62195,-0.361597 -0.47731,-1.2005034 l 0.57855,-3.3411608 c 0.17357,-1.012473 0.0434,-1.431926 -1.07033,-1.431926 -0.53516,0 -0.75212,0.1301751 -0.75212,0.1301751 0,0 0.14464,0.3326696 -0.0145,1.2438953 l -0.41946,2.4010074 c -0.13017,0.7521227 -0.17356,1.2438953 -0.17356,1.7790594 0,0.998009 0.60748,1.677813 1.57656,1.677813 0.79552,0 1.43193,-0.40499 2.03941,-1.229432 0.2025,-0.289278 0.40499,-0.607484 0.59302,-0.9690812 l -0.30374,1.8658432 c -1.17158,0.578556 -1.9237,1.012473 -2.64689,1.634421 -0.70873,0.607483 -1.21497,1.388534 -1.21497,2.241904 0,0.896762 0.63641,1.518709 1.61996,1.518709 2.14065,0 3.4858,-1.865843 4.04989,-5.221467 l 0.0289,-0.173567 c 0.85337,-0.419453 1.76459,-0.92569 2.29976,-1.330679 0.28927,-0.216958 0.44838,-0.3760613 0.4773,-0.5207003 0.0434,-0.2024946 -0.0868,-0.3326697 -0.27481,-0.3326697 -0.86783,0.708731 -2.35762,1.301751 -2.35762,1.301751 z m -5.14915,9.9077712 c -0.44838,0 -0.66534,-0.274814 -0.66534,-0.650875 0,-0.506237 0.28928,-0.99801 0.85337,-1.547638 0.43391,-0.419453 1.08479,-0.838906 2.03941,-1.330678 -0.41946,2.314223 -1.20051,3.529191 -2.22744,3.529191 z"
         style="font-family:'Magnolia Script';-inkscape-font-specification:'Magnolia Script, Normal'"
         id="path1013" />
      <path
         d="m 174.11909,5.9494465 c 0.14464,-0.7810506 0.33267,-1.0414008 0.33267,-1.0414008 0,0 -0.23143,-0.1446389 -0.7232,-0.1446389 -0.70873,0 -1.07033,0.1880306 -1.30175,0.708731 -0.33267,-0.4194531 -0.83891,-0.708731 -1.5621,-0.708731 -1.69228,0 -3.57258,1.5187094 -3.57258,4.744159 0,1.6922762 0.94015,2.4877912 2.12619,2.4877912 0.82444,0 1.61996,-0.564093 2.21298,-1.634421 0.0723,1.041401 0.73765,1.634421 1.69227,1.634421 1.403,0 2.4444,-1.374071 2.58904,-2.1406576 0.0434,-0.2603502 -0.0868,-0.3760614 -0.27481,-0.3760614 -0.37607,0.781051 -1.02694,1.258359 -1.51871,1.258359 -0.5207,0 -0.78105,-0.404989 -0.62195,-1.2728229 z m -4.12221,4.7875505 c -0.53517,0 -0.85337,-0.390525 -0.85337,-1.2005034 0,-2.3286878 1.11372,-3.7895417 2.09726,-3.7895417 0.54963,0 0.82444,0.4049892 0.95462,0.6942672 l -0.13018,0.6798033 c -0.27481,1.44639 -1.0414,3.6159746 -2.06833,3.6159746 z"
         style="font-family:'Magnolia Script';-inkscape-font-specification:'Magnolia Script, Normal'"
         id="path1015" />
      <path
         d="m 175.62332,8.8132986 c -0.10125,0.578556 -0.13017,1.0847925 -0.13017,1.3740704 0,1.157112 0.69426,1.807988 1.69227,1.807988 1.403,0 2.53118,-1.374071 2.67582,-2.1406576 0.0434,-0.2603502 -0.0868,-0.3760614 -0.27481,-0.3760614 -0.37606,0.781051 -1.02694,1.258359 -1.60549,1.258359 -0.5207,0 -0.76659,-0.419453 -0.62195,-1.2728229 l 1.41746,-8.0419282 c 0.17357,-1.01247293 0.0434,-1.43192602 -1.07033,-1.43192602 -0.53516,0 -0.75212,0.1301751 -0.75212,0.1301751 0,0 0.14464,0.33266969 -0.0145,1.24389532 z"
         style="font-family:'Magnolia Script';-inkscape-font-specification:'Magnolia Script, Normal'"
         id="path1017" />
      <path
         d="m 186.12409,5.9494465 c 0.13018,-0.7810506 0.33267,-1.0414008 0.33267,-1.0414008 0,0 -0.23142,-0.1446389 -0.72319,-0.1446389 -0.70873,0 -1.07033,0.1880306 -1.30175,0.708731 -0.33267,-0.4194531 -0.83891,-0.708731 -1.56211,-0.708731 -1.69227,0 -3.57258,1.5187094 -3.57258,4.744159 0,1.6922762 0.94015,2.4877912 2.12619,2.4877912 0.75213,0 1.47532,-0.462845 2.05388,-1.359607 l -0.17357,1.026937 c -1.18604,0.578556 -1.93816,1.012473 -2.64689,1.634421 -0.70873,0.607483 -1.21497,1.388534 -1.21497,2.241904 0,0.896762 0.63641,1.518709 1.61996,1.518709 2.14065,0 3.4858,-1.865843 4.04989,-5.221467 l 0.0289,-0.173567 c 0.85337,-0.419453 1.76459,-0.92569 2.29976,-1.330679 0.28927,-0.216958 0.44838,-0.3760613 0.4773,-0.5207003 0.0434,-0.2169585 -0.10124,-0.3326697 -0.27481,-0.3326697 -0.86783,0.708731 -2.35761,1.301751 -2.35761,1.301751 z m -4.12221,4.7875505 c -0.53516,0 -0.85337,-0.390525 -0.85337,-1.2005034 0,-2.3286878 1.11372,-3.7895417 2.09727,-3.7895417 0.54962,0 0.82444,0.4049892 0.95461,0.6942672 l -0.13017,0.6798033 c -0.27482,1.44639 -1.0414,3.6159746 -2.06834,3.6159746 z m -1.08479,5.366107 c -0.44838,0 -0.66534,-0.274814 -0.66534,-0.650875 0,-0.506237 0.28928,-0.99801 0.85337,-1.547638 0.41945,-0.419453 1.08479,-0.838906 2.03941,-1.330678 -0.43392,2.314223 -1.21497,3.529191 -2.22744,3.529191 z"
         style="font-family:'Magnolia Script';-inkscape-font-specification:'Magnolia Script, Normal'"
         id="path1019" />
      <path
         d="m 187.62833,8.8132986 c -0.10125,0.578556 -0.13018,1.0847925 -0.13018,1.3740704 0,1.157112 0.69427,1.807988 1.69228,1.807988 1.403,0 2.4444,-1.374071 2.58904,-2.1406576 0.0434,-0.2603502 -0.0868,-0.3760614 -0.27482,-0.3760614 -0.37606,0.781051 -1.02694,1.258359 -1.51871,1.258359 -0.5207,0 -0.76658,-0.404989 -0.62195,-1.2728229 l 0.5641,-3.2688413 c 0.17356,-1.012473 0.0434,-1.431926 -1.07033,-1.431926 -0.53517,0 -0.75213,0.1301751 -0.75213,0.1301751 0,0 0.14464,0.3182057 -0.0145,1.2438953 z m 0.96908,-6.2194768 c 0,0.5062365 0.34713,0.867834 0.86783,0.867834 0.63641,0 1.0414,-0.4917726 1.0414,-0.9980091 0,-0.5207004 -0.34713,-0.9112257 -0.89676,-0.9112257 -0.54963,0 -1.01247,0.4483809 -1.01247,1.0414008 z"
         style="font-family:'Magnolia Script';-inkscape-font-specification:'Magnolia Script, Normal'"
         id="path1021" />
      <path
         d="m 194.48419,11.995357 c 2.21297,0 3.60151,-1.504246 3.73168,-2.1406576 0.0579,-0.2603502 -0.0434,-0.3760614 -0.23142,-0.3760614 -0.39053,0.607484 -1.27282,1.37407 -2.82046,1.37407 -1.22943,0 -1.98156,-0.838906 -2.06834,-1.9236982 2.54565,-0.4773086 4.06436,-1.3451426 4.06436,-2.6613575 0,-0.7376589 -0.59302,-1.5042455 -2.06834,-1.5042455 -1.9237,0 -3.87633,1.5476372 -3.87633,4.1077474 0,1.9526268 1.37407,3.1242028 3.26885,3.1242028 z m 0.62194,-6.5087553 c 0.30374,0 0.50624,0.2024946 0.50624,0.5062365 0,0.9546174 -0.73766,1.8369153 -2.50226,2.2563684 0.15911,-1.8079875 1.17158,-2.7626049 1.99602,-2.7626049 z"
         style="font-family:'Magnolia Script';-inkscape-font-specification:'Magnolia Script, Normal'"
         id="path1023" />
    </g>
  </g>
  <g
     inkscape:groupmode="layer"
     id="layer7"
     inkscape:label="stgt-vaih"
     transform="translate(0.00438769,0.00968012)">
    <g
       aria-label="Stuttgart-Vaihingen"
       id="text38448"
       style="font-size:11.8181px;line-height:1.25;fill:#009c00;stroke-width:0.264583">
      <path
         d="m 3.9310396,23.673923 c 1.0045385,0 1.4654444,0.508178 1.4654444,1.169992 0,0.862721 -0.590905,1.193628 -0.590905,1.193628 0,0 0.2127258,0.307271 0.7799946,0.307271 0.7209041,0 1.1581738,-0.484542 1.1581738,-1.311809 0,-1.169992 -1.1227195,-2.009077 -2.8008897,-2.009077 -2.0563494,0 -3.16725079,1.205446 -3.16725079,2.517255 0,0.850903 0.36636109,1.524535 1.35908149,2.091804 l 1.2645367,0.720904 c 0.7918127,0.449088 1.0872652,0.874539 1.0872652,1.465444 0,0.768177 -0.6618136,1.418172 -1.7254426,1.418172 -0.9099937,0 -1.418172,-0.484542 -1.418172,-1.193628 0,-0.602723 0.4136335,-0.980902 0.4136335,-0.980902 0,0 -0.1536353,-0.307271 -0.7209041,-0.307271 -0.56726879,0 -1.03999279,0.378179 -1.03999279,1.229083 0,1.099083 1.07544709,1.902714 2.69452679,1.902714 2.1508942,0 3.309068,-1.193628 3.309068,-2.505438 0,-0.827267 -0.3781792,-1.524534 -1.3827177,-2.115439 l -1.5008987,-0.87454 c -0.5436326,-0.319089 -0.827267,-0.791813 -0.827267,-1.276355 0,-0.862721 0.6736317,-1.441808 1.6427159,-1.441808 z"
         style="font-family:'Magnolia Script';-inkscape-font-specification:'Magnolia Script, Normal'"
         id="path912" />
      <path
         d="m 7.2637301,25.978453 c -0.2599982,0 -0.4018154,0.141817 -0.4018154,0.342725 0,0.153635 0.082727,0.24818 0.082727,0.24818 h 0.7681765 l -0.4372697,2.493619 c -0.1063629,0.602723 -0.1299991,0.99272 -0.1299991,1.264536 0,0.945448 0.6854498,1.55999 1.5599892,1.55999 1.1227195,0 2.0799854,-1.028175 2.2572564,-1.749079 0.04727,-0.200908 -0.05909,-0.307271 -0.212725,-0.307271 -0.259999,0.49636 -0.744541,1.028175 -1.4181721,1.028175 -0.5554507,0 -0.7918127,-0.389997 -0.6736317,-1.039993 L 9.225535,26.569358 h 0.957266 c 0.259998,0 0.401815,-0.141818 0.401815,-0.342725 0,-0.153636 -0.08273,-0.24818 -0.08273,-0.24818 H 9.3318976 l 0.1063629,-0.590905 c 0.1536353,-0.827267 0.035454,-1.169992 -0.8745394,-1.169992 -0.4372697,0 -0.6145412,0.106363 -0.6145412,0.106363 0,0 0.1299991,0.271816 -0.011818,1.016356 l -0.118181,0.638178 z"
         style="font-family:'Magnolia Script';-inkscape-font-specification:'Magnolia Script, Normal'"
         id="path914" />
      <path
         d="m 14.094574,30.41024 c 0,0.945448 0.567269,1.477263 1.382718,1.477263 1.146355,0 1.997258,-1.12272 2.115439,-1.749079 0.03545,-0.212726 -0.07091,-0.307271 -0.224543,-0.307271 -0.307271,0.638178 -0.839086,1.028175 -1.240901,1.028175 -0.425452,0 -0.626359,-0.330907 -0.508178,-1.039993 l 0.460906,-2.67089 c 0.141817,-0.827267 0.03545,-1.169992 -0.87454,-1.169992 -0.437269,0 -0.614541,0.106363 -0.614541,0.106363 0,0 0.106363,0.24818 0,0.898175 -0.177271,1.051811 -0.68545,2.316348 -1.193628,3.084524 -0.307271,0.472724 -0.614541,0.791813 -0.874539,0.791813 -0.342725,0 -0.508179,-0.307271 -0.389998,-0.980902 l 0.472724,-2.729981 c 0.141817,-0.827267 0.03546,-1.169992 -0.874539,-1.169992 -0.43727,0 -0.614541,0.106363 -0.614541,0.106363 0,0 0.118181,0.271816 -0.01182,1.016356 l -0.342725,1.961805 c -0.106363,0.614541 -0.141818,1.016356 -0.141818,1.453626 0,0.815449 0.496361,1.3709 1.288173,1.3709 0.649996,0 1.169992,-0.330907 1.666352,-1.004539 0.18909,-0.24818 0.366362,-0.543632 0.531815,-0.874539 -0.01182,0.165453 -0.01182,0.295452 -0.01182,0.401815 z"
         style="font-family:'Magnolia Script';-inkscape-font-specification:'Magnolia Script, Normal'"
         id="path916" />
      <path
         d="m 17.415446,25.978453 c -0.259998,0 -0.401815,0.141817 -0.401815,0.342725 0,0.153635 0.08273,0.24818 0.08273,0.24818 h 0.768177 l -0.43727,2.493619 c -0.106363,0.602723 -0.129999,0.99272 -0.129999,1.264536 0,0.945448 0.68545,1.55999 1.559989,1.55999 1.12272,0 2.079986,-1.028175 2.257257,-1.749079 0.04727,-0.200908 -0.05909,-0.307271 -0.212726,-0.307271 -0.259998,0.49636 -0.74454,1.028175 -1.418172,1.028175 -0.55545,0 -0.791812,-0.389997 -0.673631,-1.039993 l 0.567268,-3.249977 h 0.957267 c 0.259998,0 0.401815,-0.141818 0.401815,-0.342725 0,-0.153636 -0.08273,-0.24818 -0.08273,-0.24818 h -1.169992 l 0.106363,-0.590905 c 0.153636,-0.827267 0.03545,-1.169992 -0.874539,-1.169992 -0.43727,0 -0.614541,0.106363 -0.614541,0.106363 0,0 0.129999,0.271816 -0.01182,1.016356 l -0.118181,0.638178 z"
         style="font-family:'Magnolia Script';-inkscape-font-specification:'Magnolia Script, Normal'"
         id="path918" />
      <path
         d="m 20.937222,25.978453 c -0.259998,0 -0.401815,0.141817 -0.401815,0.342725 0,0.153635 0.08273,0.24818 0.08273,0.24818 h 0.768177 l -0.43727,2.493619 c -0.106363,0.602723 -0.129999,0.99272 -0.129999,1.264536 0,0.945448 0.68545,1.55999 1.559989,1.55999 1.12272,0 2.079986,-1.028175 2.257257,-1.749079 0.04727,-0.200908 -0.05909,-0.307271 -0.212725,-0.307271 -0.259999,0.49636 -0.744541,1.028175 -1.418172,1.028175 -0.555451,0 -0.791813,-0.389997 -0.673632,-1.039993 l 0.567269,-3.249977 h 0.957266 c 0.259998,0 0.401815,-0.141818 0.401815,-0.342725 0,-0.153636 -0.08273,-0.24818 -0.08273,-0.24818 H 23.00539 l 0.106362,-0.590905 c 0.153636,-0.827267 0.03546,-1.169992 -0.874539,-1.169992 -0.43727,0 -0.614541,0.106363 -0.614541,0.106363 0,0 0.129999,0.271816 -0.01182,1.016356 l -0.118181,0.638178 z"
         style="font-family:'Magnolia Script';-inkscape-font-specification:'Magnolia Script, Normal'"
         id="path920" />
      <path
         d="m 29.753507,26.947537 c 0.106363,-0.638178 0.271816,-0.850903 0.271816,-0.850903 0,0 -0.189089,-0.118181 -0.590905,-0.118181 -0.579087,0 -0.874539,0.153635 -1.063629,0.579087 -0.271816,-0.342725 -0.685449,-0.579087 -1.276354,-0.579087 -1.382718,0 -2.919071,1.2409 -2.919071,3.876336 0,1.382718 0.768176,2.032714 1.737261,2.032714 0.614541,0 1.205446,-0.37818 1.67817,-1.110902 l -0.141817,0.839085 c -0.969085,0.472724 -1.583626,0.827267 -2.162713,1.335446 -0.579087,0.49636 -0.99272,1.134537 -0.99272,1.831805 0,0.732722 0.519996,1.240901 1.323627,1.240901 1.749079,0 2.848162,-1.524535 3.309068,-4.266334 l 0.02364,-0.141818 c 0.697268,-0.342725 1.441808,-0.756358 1.879078,-1.087265 0.236362,-0.177271 0.366361,-0.30727 0.389997,-0.425451 0.03545,-0.177272 -0.08273,-0.271817 -0.224543,-0.271817 -0.709086,0.579087 -1.926351,1.063629 -1.926351,1.063629 z m -3.368158,3.911791 c -0.43727,0 -0.697268,-0.319089 -0.697268,-0.980902 0,-1.902714 0.909993,-3.096343 1.713624,-3.096343 0.449088,0 0.673632,0.330907 0.779995,0.567269 l -0.106363,0.555451 c -0.224544,1.18181 -0.850903,2.954525 -1.689988,2.954525 z m -0.886358,4.384515 c -0.366361,0 -0.543633,-0.224544 -0.543633,-0.531814 0,-0.413634 0.236362,-0.815449 0.697268,-1.264537 0.342725,-0.342725 0.886358,-0.68545 1.666352,-1.087265 -0.354543,1.890896 -0.99272,2.883616 -1.819987,2.883616 z"
         style="font-family:'Magnolia Script';-inkscape-font-specification:'Magnolia Script, Normal'"
         id="path922" />
      <path
         d="m 36.336179,26.947537 c 0.118181,-0.638178 0.271817,-0.850903 0.271817,-0.850903 0,0 -0.18909,-0.118181 -0.590905,-0.118181 -0.579087,0 -0.87454,0.153635 -1.063629,0.579087 -0.271817,-0.342725 -0.68545,-0.579087 -1.276355,-0.579087 -1.382718,0 -2.919071,1.2409 -2.919071,3.876336 0,1.382718 0.768177,2.032714 1.737261,2.032714 0.673631,0 1.323627,-0.460906 1.808169,-1.335446 0.05909,0.850904 0.602723,1.335446 1.382718,1.335446 1.146355,0 1.997259,-1.12272 2.11544,-1.749079 0.03545,-0.212726 -0.07091,-0.307271 -0.224544,-0.307271 -0.307271,0.638178 -0.839085,1.028175 -1.240901,1.028175 -0.425451,0 -0.638177,-0.330907 -0.508178,-1.039993 z m -3.368158,3.911791 c -0.43727,0 -0.697268,-0.319089 -0.697268,-0.980902 0,-1.902714 0.909994,-3.096343 1.713624,-3.096343 0.449088,0 0.673632,0.330907 0.779995,0.567269 l -0.106363,0.555451 c -0.224544,1.18181 -0.850903,2.954525 -1.689988,2.954525 z"
         style="font-family:'Magnolia Script';-inkscape-font-specification:'Magnolia Script, Normal'"
         id="path924" />
      <path
         d="m 39.527057,27.148445 c 0.141817,-0.791813 0.03545,-1.169992 -0.87454,-1.169992 -0.437269,0 -0.614541,0.106363 -0.614541,0.106363 0,0 0.118181,0.271816 -0.01182,1.016356 l -0.626359,3.616339 c -0.141818,0.827267 -0.03545,1.169992 0.874539,1.169992 0.43727,0 0.614541,-0.106363 0.614541,-0.106363 0,0 -0.118181,-0.24818 0,-0.945448 0.283635,-1.666352 0.673632,-2.399075 1.12272,-3.025434 0.389997,-0.543632 0.649995,-0.697268 0.839085,-0.697268 0.177271,0 0.24818,0.09455 0.24818,0.259998 0,0.319089 -0.153635,0.590905 -0.153635,0.590905 0,0 0.224544,0.07091 0.531814,0.07091 0.579087,0 0.980902,-0.472724 0.980902,-1.134538 0,-0.602723 -0.366361,-0.921811 -0.945448,-0.921811 -0.531814,0 -1.323627,0.413633 -2.079985,1.689988 z"
         style="font-family:'Magnolia Script';-inkscape-font-specification:'Magnolia Script, Normal'"
         id="path926" />
      <path
         d="m 42.859748,25.978453 c -0.259999,0 -0.401816,0.141817 -0.401816,0.342725 0,0.153635 0.08273,0.24818 0.08273,0.24818 h 0.768176 l -0.437269,2.493619 c -0.106363,0.602723 -0.129999,1.016356 -0.129999,1.288173 0,0.945448 0.649995,1.536353 1.42999,1.536353 0.815449,0 1.453626,-0.531815 1.512716,-1.051811 0.02364,-0.177272 -0.05909,-0.307271 -0.189089,-0.307271 0,0 -0.18909,0.330907 -0.661814,0.330907 -0.460906,0 -0.697268,-0.413634 -0.55545,-1.217264 l 0.543632,-3.072706 h 0.957266 c 0.259998,0 0.401816,-0.141818 0.401816,-0.342725 0,-0.153636 -0.08273,-0.24818 -0.08273,-0.24818 h -1.169992 l 0.106363,-0.590905 c 0.141817,-0.827267 0.03545,-1.169992 -0.874539,-1.169992 -0.43727,0 -0.614542,0.106363 -0.614542,0.106363 0,0 0.118181,0.271816 -0.01182,1.016356 l -0.118181,0.638178 z"
         style="font-family:'Magnolia Script';-inkscape-font-specification:'Magnolia Script, Normal'"
         id="path928" />
      <path
         d="m 49.962417,29.157522 c 0.732722,0 0.980902,-0.307271 0.980902,-0.756359 0,-0.224544 -0.09454,-0.30727 -0.09454,-0.30727 0,0 -0.177272,0.106362 -0.649996,0.106362 h -2.978161 c -0.732722,0 -0.980902,0.307271 -0.980902,0.756359 0,0.224544 0.09454,0.30727 0.09454,0.30727 0,0 0.177271,-0.106362 0.649995,-0.106362 z"
         style="font-family:'Magnolia Script';-inkscape-font-specification:'Magnolia Script, Normal'"
         id="path930" />
      <path
         d="m 56.710539,31.887503 c 1.489081,0 2.422711,-1.288173 3.238159,-3.332705 0.555451,-1.406353 1.087266,-3.309068 1.087266,-4.384515 0,-0.732722 -0.165454,-1.252718 -0.850904,-1.252718 -0.342724,0 -0.508178,0.106363 -0.508178,0.106363 0.165454,0.484542 0.236362,1.063629 0.236362,1.689988 0,1.760897 -0.567269,3.852701 -1.264537,5.058147 -0.425451,0.720904 -0.933629,1.087265 -1.48908,1.087265 -0.626359,0 -1.217264,-0.307271 -1.217264,-1.701806 0,-0.37818 0.05909,-0.862722 0.153635,-1.418172 l 0.590905,-3.427249 c 0.153635,-0.909994 -0.01182,-1.288173 -0.886358,-1.288173 h -0.815449 c -1.902714,0 -2.978161,0.850903 -2.978161,2.020895 0,0.709086 0.472724,1.18181 1.240901,1.18181 0.602723,0 0.898175,-0.378179 0.898175,-0.661814 0,-0.07091 -0.01182,-0.106363 -0.01182,-0.106363 0,0 -0.07091,0.03545 -0.200907,0.03545 -0.295453,0 -0.472724,-0.212726 -0.472724,-0.543633 0,-0.673632 0.531814,-1.276355 1.607261,-1.276355 h 0.106363 c 0,0 0,0.236362 -0.05909,0.579087 l -0.555451,3.474521 c -0.07091,0.425452 -0.106363,0.93363 -0.106363,1.359082 0,1.571807 0.614541,2.80089 2.257257,2.80089 z"
         style="font-family:'Magnolia Script';-inkscape-font-specification:'Magnolia Script, Normal'"
         id="path932" />
      <path
         d="m 66.614088,26.947537 c 0.118181,-0.638178 0.271816,-0.850903 0.271816,-0.850903 0,0 -0.18909,-0.118181 -0.590905,-0.118181 -0.579087,0 -0.87454,0.153635 -1.063629,0.579087 -0.271816,-0.342725 -0.68545,-0.579087 -1.276355,-0.579087 -1.382718,0 -2.919071,1.2409 -2.919071,3.876336 0,1.382718 0.768177,2.032714 1.737261,2.032714 0.673632,0 1.323627,-0.460906 1.808169,-1.335446 0.05909,0.850904 0.602723,1.335446 1.382718,1.335446 1.146356,0 1.997259,-1.12272 2.11544,-1.749079 0.03545,-0.212726 -0.07091,-0.307271 -0.224544,-0.307271 -0.307271,0.638178 -0.839085,1.028175 -1.2409,1.028175 -0.425452,0 -0.638178,-0.330907 -0.508179,-1.039993 z m -3.368159,3.911791 c -0.43727,0 -0.697268,-0.319089 -0.697268,-0.980902 0,-1.902714 0.909994,-3.096343 1.713625,-3.096343 0.449087,0 0.673631,0.330907 0.779994,0.567269 l -0.106363,0.555451 c -0.224544,1.18181 -0.850903,2.954525 -1.689988,2.954525 z"
         style="font-family:'Magnolia Script';-inkscape-font-specification:'Magnolia Script, Normal'"
         id="path934" />
      <path
         d="m 67.843157,29.287521 c -0.08273,0.472724 -0.106363,0.886357 -0.106363,1.122719 0,0.945448 0.567268,1.477263 1.382717,1.477263 1.146356,0 1.997259,-1.12272 2.11544,-1.749079 0.03545,-0.212726 -0.07091,-0.307271 -0.224544,-0.307271 -0.30727,0.638178 -0.839085,1.028175 -1.2409,1.028175 -0.425452,0 -0.626359,-0.330907 -0.508178,-1.039993 l 0.460905,-2.67089 c 0.141818,-0.827267 0.03545,-1.169992 -0.874539,-1.169992 -0.43727,0 -0.614541,0.106363 -0.614541,0.106363 0,0 0.118181,0.259998 -0.01182,1.016356 z m 0.791812,-5.081783 c 0,0.413633 0.283635,0.709086 0.709086,0.709086 0.519997,0 0.850903,-0.401816 0.850903,-0.815449 0,-0.425452 -0.283634,-0.744541 -0.732722,-0.744541 -0.449088,0 -0.827267,0.366362 -0.827267,0.850904 z"
         style="font-family:'Magnolia Script';-inkscape-font-specification:'Magnolia Script, Normal'"
         id="path936" />
      <path
         d="m 76.493991,30.859328 c -0.449087,0 -0.602723,-0.378179 -0.484542,-1.039993 l 0.283635,-1.666352 c 0.05909,-0.354543 0.106363,-0.697268 0.106363,-0.957266 0,-0.732722 -0.472724,-1.217264 -1.217265,-1.217264 -0.969084,0 -1.855441,0.945448 -2.316347,1.713624 l 0.779994,-4.443605 c 0.141818,-0.827267 0.03545,-1.169992 -0.874539,-1.169992 -0.43727,0 -0.614541,0.106363 -0.614541,0.106363 0,0 0.118181,0.271816 -0.01182,1.016356 l -1.311809,7.516312 c -0.141818,0.827267 -0.03545,1.169992 0.874539,1.169992 0.43727,0 0.614541,-0.106363 0.614541,-0.106363 0,0 -0.118181,-0.271817 0.01182,-1.016357 0.354543,-1.985441 1.489081,-3.746338 2.233621,-3.746338 0.259998,0 0.378179,0.177272 0.283635,0.744541 l -0.224544,1.299991 c -0.09455,0.579087 -0.177272,1.039993 -0.177272,1.347263 0,0.886358 0.543633,1.477263 1.42999,1.477263 1.099084,0 1.961805,-1.12272 2.079986,-1.749079 0.03545,-0.212726 -0.07091,-0.307271 -0.224544,-0.307271 -0.342725,0.68545 -0.779995,1.028175 -1.240901,1.028175 z"
         style="font-family:'Magnolia Script';-inkscape-font-specification:'Magnolia Script, Normal'"
         id="path938" />
      <path
         d="m 77.723047,29.287521 c -0.08273,0.472724 -0.106363,0.886357 -0.106363,1.122719 0,0.945448 0.567269,1.477263 1.382718,1.477263 1.146355,0 1.997259,-1.12272 2.11544,-1.749079 0.03545,-0.212726 -0.07091,-0.307271 -0.224544,-0.307271 -0.307271,0.638178 -0.839085,1.028175 -1.240901,1.028175 -0.425451,0 -0.626359,-0.330907 -0.508178,-1.039993 l 0.460906,-2.67089 c 0.141817,-0.827267 0.03545,-1.169992 -0.87454,-1.169992 -0.437269,0 -0.614541,0.106363 -0.614541,0.106363 0,0 0.118181,0.259998 -0.01182,1.016356 z m 0.791813,-5.081783 c 0,0.413633 0.283634,0.709086 0.709086,0.709086 0.519996,0 0.850903,-0.401816 0.850903,-0.815449 0,-0.425452 -0.283635,-0.744541 -0.732722,-0.744541 -0.449088,0 -0.827267,0.366362 -0.827267,0.850904 z"
         style="font-family:'Magnolia Script';-inkscape-font-specification:'Magnolia Script, Normal'"
         id="path940" />
      <path
         d="m 84.506622,29.062977 c -0.07091,0.389997 -0.177271,1.039993 -0.177271,1.347263 0,0.886358 0.543632,1.477263 1.42999,1.477263 1.099083,0 1.98544,-1.146356 2.079985,-1.749079 0.03545,-0.212726 -0.07091,-0.307271 -0.224544,-0.307271 -0.30727,0.614541 -0.74454,1.028175 -1.2409,1.028175 -0.49636,0 -0.590905,-0.460906 -0.484542,-1.039993 l 0.283634,-1.666352 c 0.05909,-0.354543 0.106363,-0.697268 0.106363,-0.957266 0,-0.732722 -0.472724,-1.217264 -1.217264,-1.217264 -0.957266,0 -1.855442,0.945448 -2.316348,1.713624 l 0.09455,-0.543632 c 0.141817,-0.827267 0.03545,-1.169992 -0.874539,-1.169992 -0.43727,0 -0.614542,0.106363 -0.614542,0.106363 0,0 0.118181,0.271816 -0.01182,1.016356 l -0.626359,3.616339 c -0.141817,0.827267 -0.03545,1.169992 0.874539,1.169992 0.43727,0 0.614542,-0.106363 0.614542,-0.106363 0,0 -0.118181,-0.271817 0.01182,-1.016357 0.366361,-1.985441 1.48908,-3.746338 2.233621,-3.746338 0.259998,0 0.378179,0.177272 0.283634,0.744541 z"
         style="font-family:'Magnolia Script';-inkscape-font-specification:'Magnolia Script, Normal'"
         id="path942" />
      <path
         d="m 92.956544,26.947537 c 0.106363,-0.638178 0.271817,-0.850903 0.271817,-0.850903 0,0 -0.18909,-0.118181 -0.590905,-0.118181 -0.579087,0 -0.87454,0.153635 -1.063629,0.579087 -0.271817,-0.342725 -0.68545,-0.579087 -1.276355,-0.579087 -1.382718,0 -2.919071,1.2409 -2.919071,3.876336 0,1.382718 0.768177,2.032714 1.737261,2.032714 0.614541,0 1.205446,-0.37818 1.67817,-1.110902 l -0.141817,0.839085 c -0.969084,0.472724 -1.583626,0.827267 -2.162712,1.335446 -0.579087,0.49636 -0.992721,1.134537 -0.992721,1.831805 0,0.732722 0.519997,1.240901 1.323627,1.240901 1.749079,0 2.848162,-1.524535 3.309068,-4.266334 l 0.02364,-0.141818 c 0.697267,-0.342725 1.441808,-0.756358 1.879077,-1.087265 0.236362,-0.177271 0.366362,-0.30727 0.389998,-0.425451 0.03545,-0.177272 -0.08273,-0.271817 -0.224544,-0.271817 -0.709086,0.579087 -1.92635,1.063629 -1.92635,1.063629 z m -3.368158,3.911791 c -0.43727,0 -0.697268,-0.319089 -0.697268,-0.980902 0,-1.902714 0.909994,-3.096343 1.713624,-3.096343 0.449088,0 0.673632,0.330907 0.779995,0.567269 l -0.106363,0.555451 c -0.224544,1.18181 -0.850903,2.954525 -1.689988,2.954525 z m -0.886358,4.384515 c -0.366361,0 -0.543632,-0.224544 -0.543632,-0.531814 0,-0.413634 0.236362,-0.815449 0.697268,-1.264537 0.342725,-0.342725 0.886357,-0.68545 1.666352,-1.087265 -0.354543,1.890896 -0.992721,2.883616 -1.819988,2.883616 z"
         style="font-family:'Magnolia Script';-inkscape-font-specification:'Magnolia Script, Normal'"
         id="path944" />
      <path
         d="m 96.631964,31.887503 c 1.808169,0 2.942707,-1.229083 3.04907,-1.749079 0.04727,-0.212726 -0.03545,-0.307271 -0.18909,-0.307271 -0.319089,0.49636 -1.039993,1.12272 -2.304529,1.12272 -1.004539,0 -1.61908,-0.68545 -1.689989,-1.571808 2.079986,-0.389997 3.320886,-1.099083 3.320886,-2.17453 0,-0.602723 -0.484542,-1.229082 -1.689988,-1.229082 -1.571807,0 -3.167251,1.264536 -3.167251,3.35634 0,1.595444 1.12272,2.55271 2.670891,2.55271 z m 0.508178,-5.318145 c 0.24818,0 0.413634,0.165453 0.413634,0.413633 0,0.779995 -0.602723,1.500899 -2.044532,1.843624 0.129999,-1.477263 0.957266,-2.257257 1.630898,-2.257257 z"
         style="font-family:'Magnolia Script';-inkscape-font-specification:'Magnolia Script, Normal'"
         id="path946" />
      <path
         d="m 103.14371,29.062977 c -0.0709,0.389997 -0.17727,1.039993 -0.17727,1.347263 0,0.886358 0.54364,1.477263 1.42999,1.477263 1.09909,0 1.98544,-1.146356 2.07999,-1.749079 0.0354,-0.212726 -0.0709,-0.307271 -0.22455,-0.307271 -0.30727,0.614541 -0.74454,1.028175 -1.2409,1.028175 -0.49636,0 -0.5909,-0.460906 -0.48454,-1.039993 l 0.28364,-1.666352 c 0.0591,-0.354543 0.10636,-0.697268 0.10636,-0.957266 0,-0.732722 -0.47272,-1.217264 -1.21726,-1.217264 -0.95727,0 -1.85545,0.945448 -2.31635,1.713624 l 0.0945,-0.543632 c 0.14182,-0.827267 0.0355,-1.169992 -0.87454,-1.169992 -0.43727,0 -0.614538,0.106363 -0.614538,0.106363 0,0 0.118178,0.271816 -0.01182,1.016356 l -0.626359,3.616339 c -0.141818,0.827267 -0.03545,1.169992 0.874537,1.169992 0.43727,0 0.61455,-0.106363 0.61455,-0.106363 0,0 -0.11819,-0.271817 0.0118,-1.016357 0.36636,-1.985441 1.48908,-3.746338 2.23362,-3.746338 0.26,0 0.37818,0.177272 0.28364,0.744541 z"
         style="font-family:'Magnolia Script';-inkscape-font-specification:'Magnolia Script, Normal'"
         id="path948" />
    </g>
  </g>
  <g
     inkscape:groupmode="layer"
     id="layer8"
     inkscape:label="ico"
     style="display:inline"
     transform="translate(0.00438769,0.00968012)">
    <circle
       style="fill:#1963b8;fill-opacity:1;stroke-width:0.238124"
       id="path63623"
       cx="131.94064"
       cy="29.821074"
       r="4.5" />
    <circle
       style="fill:#009e03;fill-opacity:1;stroke-width:0.238124"
       id="path63623-7"
       cx="158.36089"
       cy="28.30752"
       r="4.5" />
    <path
       style="fill:#009e03;fill-opacity:1;stroke:none"
       d="m 119.81211,20.900411 c -4.2951,8.514916 -0.6216,13.406924 5.66706,19.610175 0.61881,5.992462 -0.2667,15.734587 1.89142,15.955989 1.36092,0.231787 7.78835,-10.509364 10.31793,-15.680451 3.99956,-4.428644 4.79461,-5.048848 6.60472,-7.855924 1.47576,-2.764617 1.57684,-5.261164 1.15579,-7.446611 -5.50138,6.0048 -9.45967,9.695395 -13.4534,10.019444 -6.07709,-0.157292 -8.31923,-5.240704 -12.18352,-14.602622 z"
       id="path63787"
       sodipodi:nodetypes="cccccccc" />
    <path
       style="fill:#1963b8;fill-opacity:1;stroke:none;stroke-width:0.264583px;stroke-linecap:butt;stroke-linejoin:miter;stroke-opacity:1"
       d="m 145.44903,25.483589 c 0.26599,2.06985 0.67337,4.935094 1.4665,5.886586 2.86012,3.746745 4.77688,4.492263 7.55618,8.166056 4.82027,6.371633 8.46393,13.218819 10.35612,13.109483 1.36171,-0.234525 -0.003,-8.614567 -0.41642,-13.659665 3.65613,-5.565035 6.35221,-10.054431 2.40003,-16.717958 -2.27466,11.643832 -5.90761,19.920375 -21.36241,3.215498 z"
       id="path66467"
       sodipodi:nodetypes="ccscccc" />
    <path
       style="fill:#012273;fill-opacity:1;stroke:none;stroke-width:0.264583px;stroke-linecap:butt;stroke-linejoin:miter;stroke-opacity:1"
       d="m 121.55348,48.2376 c -7.85042,10.220202 3.76669,9.642176 14.60297,9.772407 8.82845,0.106101 22.38506,-2.54761 28.23932,-3.688786 16.23689,-3.165072 16.29259,-5.663103 0.76523,-11.954088 28.43155,2.279084 32.49176,5.945807 32.91089,8.645401 1.62407,11.603462 -59.32144,17.887202 -67.94888,11.128131 23.23722,2.923506 73.69793,-8.050841 52.02103,-14.380858 8.77463,7.817344 -14.75984,11.969277 -35.89557,13.711357 C 123.70341,63.329406 103.71409,58.06602 121.55348,48.2376 Z"
       id="path69010"
       sodipodi:nodetypes="cssccccsc" />
  </g>
</svg>
