<?xml version="1.0" encoding="UTF-8" standalone="no"?>
<!-- Created with Inkscape (http://www.inkscape.org/) -->

<svg
   width="62.042233mm"
   height="62.04224mm"
   viewBox="0 0 62.042233 62.04224"
   version="1.1"
   id="svg5"
   inkscape:version="1.1.2 (0a00cf5339, 2022-02-04)"
   sodipodi:docname="fibro-icon.svg"
   inkscape:export-filename="/home/felix/proj/fibro-website/favicon-32.png"
   inkscape:export-xdpi="13.1"
   inkscape:export-ydpi="13.1"
   xmlns:inkscape="http://www.inkscape.org/namespaces/inkscape"
   xmlns:sodipodi="http://sodipodi.sourceforge.net/DTD/sodipodi-0.dtd"
   xmlns="http://www.w3.org/2000/svg"
   xmlns:svg="http://www.w3.org/2000/svg">
  <sodipodi:namedview
     id="namedview7"
     pagecolor="#ffffff"
     bordercolor="#666666"
     borderopacity="1.0"
     inkscape:pageshadow="2"
     inkscape:pageopacity="0.0"
     inkscape:pagecheckerboard="0"
     inkscape:document-units="mm"
     showgrid="false"
     inkscape:zoom="1.2046098"
     inkscape:cx="-187.19755"
     inkscape:cy="64.75126"
     inkscape:window-width="1920"
     inkscape:window-height="1009"
     inkscape:window-x="0"
     inkscape:window-y="0"
     inkscape:window-maximized="1"
     inkscape:current-layer="layer1"
     fit-margin-top="0"
     fit-margin-left="0"
     fit-margin-right="0"
     fit-margin-bottom="0" />
  <defs
     id="defs2" />
  <g
     inkscape:groupmode="layer"
     id="layer1"
     inkscape:label="tmp"
     transform="translate(-109.03874,-12.179453)">
    <ellipse
       style="display:inline;fill:#ffffff"
       id="path2534"
       cx="140.05986"
       cy="43.200573"
       rx="30.902138"
       ry="30.902142" />
  </g>
  <g
     inkscape:groupmode="layer"
     id="layer6"
     inkscape:label="ico-blue 1"
     style="display:inline"
     transform="translate(-115.00173,-17.796228)">
    <path
       style="display:inline;fill:#012273;fill-opacity:1;stroke-width:0.144913"
       d="m 171.16228,51.93189 c 4.40527,3.770304 0.7043,8.460523 -0.24029,9.447217 -11.54484,8.091864 -24.37921,8.369524 -38.00001,7.954231 -5.06032,-0.47735 -6.36427,-1.080659 -8.79539,-2.820774 -2.54114,-2.214954 -2.15491,-4.905856 -1.60763,-6.96574 0.32189,-1.157052 0.78519,-2.663151 2.06408,-4.035604 0.97345,-1.044667 1.86093,-1.758153 1.86093,-1.377453 0,0.10956 -0.0798,0.579031 -0.25571,1.291941 -1.26359,5.12127 -0.31206,6.913617 3.03761,7.688999 2.85996,0.662022 10.67228,0.55992 15.98367,-0.11318 14.71302,-1.86455 18.71155,-3.554944 21.94105,-5.0648 3.56807,-2.519867 -0.10712,-5.848041 -0.10712,-5.848041 -1.99178,-2.11525 -3.7295,-3.732799 -3.8415,-4.136019 2.09136,0.550035 4.10973,0.717089 7.96031,3.979223 z"
       id="path67"
       sodipodi:nodetypes="cccccssssscccc" />
  </g>
  <g
     inkscape:groupmode="layer"
     id="layer4"
     inkscape:label="ico-lightblue"
     style="display:inline"
     transform="translate(-115.00173,-17.796228)">
    <path
       style="fill:#1963b8;fill-opacity:1;stroke-width:0.144913"
       d="m 146.58669,31.100364 0.92977,1.15004 c 1.35989,1.68208 3.66984,4.1265 5.16031,5.4607 2.4235,2.16942 4.80825,2.651717 6.25124,2.156297 2.32386,-0.79785 3.55562,-0.841524 4.695,-7.021464 0.2,-1.08479 0.39377,-2.07885 0.43061,-2.20903 0.0969,-0.3423 1.0267,2.04477 1.38293,3.55023 0.22312,0.94296 0.29861,1.68143 0.29837,2.91907 -0.50502,3.059908 0.1786,0.900687 -2.28591,5.778387 l -0.86815,1.71823 0.22901,2.6041 c 0.58955,6.70368 0.64414,7.54119 0.58582,8.98744 -0.0347,0.85889 -0.12807,1.53318 -0.2333,1.68348 -0.67611,0.96586 -1.90869,-0.64768 -6.13647,-8.03315 -1.19229,-2.0828 -2.44234,-4.17743 -2.77786,-4.65474 -0.33553,-0.47731 -1.88291,-2.40333 -3.43862,-4.28005 -2.21138,-2.66768 -2.89966,-3.59726 -3.15439,-4.26027 -0.27688,-0.72065 -0.5888,-2.44025 -0.78351,-4.31939 z"
       id="path67-1-4"
       sodipodi:nodetypes="csssssscscsscsssscc" />
    <circle
       style="fill:#1963b8;fill-opacity:1;stroke-width:0.966391"
       id="path2800"
       cx="135.19144"
       cy="35.070816"
       r="4.6088824" />
  </g>
  <g
     inkscape:groupmode="layer"
     id="layer5"
     inkscape:label="ico-green"
     style="display:inline"
     transform="translate(-115.00173,-17.796228)">
    <path
       style="fill:#009e03;fill-opacity:1;stroke-width:0.144913"
       d="m 130.849,61.839024 c -0.64241,-0.54472 -0.81251,-2.20099 -0.95893,-9.33675 -0.084,-4.09411 -0.16982,-5.97449 -0.28445,-6.23262 -0.21634,-0.48719 -0.5969,-1.03065 -1.90208,-2.7163 -0.59616,-0.76995 -1.13871,-1.5155 -1.20565,-1.65677 -0.067,-0.14127 -0.16234,-0.29236 -0.21201,-0.33575 -0.1157,-0.1011 -1.34509,-1.892146 -1.61324,-2.413006 -0.1117,-0.21696 -0.34795,-0.927 -0.52499,-1.57788 -0.27529,-1.01203 -0.31969,-1.46903 -0.30659,-3.15576 0.0141,-1.81509 0.0533,-2.1076 0.49152,-3.66885 0.54267,-1.93332 1.08998,-3.15459 1.38225,-3.08438 0.12074,0.029 0.41643,0.80887 0.76578,2.0196 0.62733,2.17417 1.3194,4.1513 1.96072,5.60147 0.65555,1.48234 1.83595,3.251646 2.48808,3.932196 2.56871,2.68068 5.36882,2.56756 9.03538,-0.36501 0.94835,-0.7585 4.81616,-5.18908 6.02114,-6.89723 l 0.60076,-0.85162 0.28485,1.22988 c -0.0345,0.49351 -0.058,0.34601 -0.069,1.34749 -0.0332,3.03401 -0.33441,3.94216 -2.00157,6.03529 -0.49842,0.62577 -1.11042,1.45728 -1.35999,1.84781 -0.88972,1.39227 -2.58254,3.86669 -2.68067,3.9184 -0.17791,0.353597 -0.35395,0.73969 -0.54659,1.02536 -0.50752,0.74714 -1.29847,2.3321 -2.02502,4.0579 -0.27222,0.64661 -0.86802,1.8857 -1.324,2.75354 -0.45597,0.86783 -0.96385,1.89433 -1.12861,2.2811 -0.52932,1.2426 -2.75115,5.11573 -3.28322,5.72335 -0.60818,0.69453 -1.17877,0.87901 -1.60388,0.51854 z"
       id="path67-1"
       sodipodi:nodetypes="ssssssssssssssssccsssccssssss" />
    <circle
       style="display:inline;fill:#009e03;fill-opacity:1;stroke-width:0.925088"
       id="path2800-3"
       cx="157.32742"
       cy="34.622452"
       r="4.4119029" />
  </g>
</svg>
