<?xml version="1.0" encoding="UTF-8" standalone="no"?>
<!-- Created with Inkscape (http://www.inkscape.org/) -->

<svg
   width="198.06705mm"
   height="64.985916mm"
   viewBox="0 0 198.06705 64.985916"
   version="1.1"
   id="svg5"
   inkscape:version="1.1.2 (0a00cf5339, 2022-02-04)"
   sodipodi:docname="fibro-logo.svg"
   xmlns:inkscape="http://www.inkscape.org/namespaces/inkscape"
   xmlns:sodipodi="http://sodipodi.sourceforge.net/DTD/sodipodi-0.dtd"
   xmlns="http://www.w3.org/2000/svg"
   xmlns:svg="http://www.w3.org/2000/svg">
  <sodipodi:namedview
     id="namedview7"
     pagecolor="#ffffff"
     bordercolor="#666666"
     borderopacity="1.0"
     inkscape:pageshadow="2"
     inkscape:pageopacity="0.0"
     inkscape:pagecheckerboard="0"
     inkscape:document-units="mm"
     showgrid="false"
     inkscape:zoom="1.0395567"
     inkscape:cx="321.77177"
     inkscape:cy="105.81433"
     inkscape:window-width="1920"
     inkscape:window-height="1009"
     inkscape:window-x="0"
     inkscape:window-y="0"
     inkscape:window-maximized="1"
     inkscape:current-layer="layer6"
     fit-margin-top="0"
     fit-margin-left="0"
     fit-margin-right="0"
     fit-margin-bottom="0" />
  <defs
     id="defs2" />
  <g
     inkscape:groupmode="layer"
     id="layer6"
     inkscape:label="ico-blue 1"
     style="display:inline"
     transform="translate(-5.9629818,-5.6167747)">
    <path
       style="display:inline;fill:#012273;fill-opacity:1;stroke-width:0.157788"
       d="m 147.9647,70.558717 c -2.12674,-0.12842 -6.52566,-0.55132 -7.33714,-0.70537 -2.19035,-0.4158 -3.92382,-1.15586 -4.57585,-1.95352 -0.2266,-0.27721 -0.19298,-0.2848 0.78894,-0.17816 5.79485,0.62938 10.65883,0.67261 18.30339,0.16268 5.04462,-0.3365 12.52754,-1.32037 17.27778,-2.2717 8.19057,-1.64033 12.41974,-2.93238 16.93257,-5.17306 2.81181,-1.3961 4.22376,-2.80196 3.96841,-3.95128 -0.15873,-0.71446 -0.63161,-1.17413 -1.86614,-1.81405 -1.00882,-0.52292 -3.61082,-1.46315 -3.72717,-1.3468 -0.0311,0.0311 0.34342,0.37575 0.83238,0.76579 1.61433,1.28774 2.06224,2.36488 1.48095,3.56135 -0.84275,1.73465 -3.72952,3.15759 -10.36275,5.108 -1.12839,0.33179 -6.24542,1.48618 -7.81051,1.76204 -6.30517,1.11131 -14.07548,2.21097 -20.74911,2.93641 -2.67825,0.29114 -10.76218,0.39335 -12.62303,0.1596 -0.5207,-0.0654 -1.90529,-0.22871 -3.07686,-0.36291 -5.20865,-0.5966 -10.16192,-1.80768 -12.24782,-2.99459 -1.00457,-0.57162 -2.09075,-1.59871 -2.36559,-2.23689 -0.35524,-0.82489 -0.27695,-2.0746 0.18848,-3.0086 0.55172,-1.10717 2.8,-3.19978 4.57121,-4.25471 1.38289,-0.82365 1.96432,-1.00988 1.96432,-0.62918 0,0.10956 -0.35355,0.72076 -0.78566,1.35821 -3.10269,4.57709 -2.06665,6.51092 4.08383,7.62273 3.40309,0.61516 12.65284,0.55992 18.94993,-0.11318 17.44347,-1.86455 30.60083,-4.7921 32.88606,-7.31724 0.14827,-0.16386 0.27564,-0.51001 0.28301,-0.76922 0.0355,-1.24809 -1.57763,-2.33894 -6.34513,-4.29081 -4.39791,-1.80057 -5.35968,-2.26837 -5.49247,-2.67159 -0.17797,-0.54029 6.75334,0.17003 14.57012,1.49314 10.19577,1.7258 14.53394,3.03398 16.79111,5.06337 3.31785,2.98303 0.82458,6.78104 -6.30306,9.60149 -3.80578,1.50597 -8.41814,2.7047 -13.64865,3.54724 -1.12819,0.18172 -3.11631,0.50138 -4.41806,0.71034 -2.19681,0.35263 -4.87481,0.64912 -11.43963,1.26647 -1.43192,0.13466 -3.24254,0.31121 -4.02359,0.39232 -3.78296,0.3929 -12.0264,0.69157 -14.67427,0.53168 z"
       id="path67"
       sodipodi:nodetypes="ssscssssssssssssssssssssssssssssssscs" />
  </g>
  <g
     inkscape:groupmode="layer"
     id="layer4"
     inkscape:label="ico-lightblue"
     style="display:inline"
     transform="translate(-5.9629818,-5.6167747)">
    <path
       style="fill:#1963b8;fill-opacity:1;stroke-width:0.157788"
       d="m 151.41201,31.100364 1.10231,1.15004 c 1.61226,1.68208 4.3509,4.1265 6.11797,5.4607 2.87325,2.16942 5.84987,3.25643 7.56065,2.76101 2.75512,-0.79785 4.69355,-4.09207 6.04437,-10.27201 0.23712,-1.08479 0.46685,-2.07885 0.51052,-2.20903 0.11484,-0.3423 1.21724,2.04477 1.63958,3.55023 0.26453,0.94296 0.35403,1.68143 0.35374,2.91907 0,2.49892 -0.41563,3.54652 -3.3375,8.42422 l -1.02926,1.71823 0.2715,2.6041 c 0.69896,6.70368 0.76368,7.54119 0.69454,8.98744 -0.0411,0.85889 -0.15184,1.53318 -0.27659,1.68348 -0.80159,0.96586 -2.26291,-0.64768 -7.27528,-8.03315 -1.41356,-2.0828 -2.89559,-4.17743 -3.29338,-4.65474 -0.3978,-0.47731 -2.23234,-2.40333 -4.07676,-4.28005 -2.62177,-2.66768 -3.43778,-3.59726 -3.73979,-4.26027 -0.32826,-0.72065 -0.69807,-2.44025 -0.92891,-4.31939 z m -15.7228,8.21087 c -1.72454,-0.89275 -2.45168,-2.23034 -2.30891,-4.24735 0.16893,-2.38676 1.98518,-3.98037 4.53643,-3.98037 1.88922,0 3.27486,0.79479 4.049,2.32247 1.12784,2.22569 0.33927,4.79138 -1.8143,5.90302 -0.87926,0.45386 -1.149,0.51616 -2.2347,0.51616 -1.08518,0 -1.35497,-0.0622 -2.22752,-0.51393 z"
       id="path67-1-4"
       sodipodi:nodetypes="csssssscscsscsssscccsssssc" />
  </g>
  <g
     inkscape:groupmode="layer"
     id="layer5"
     inkscape:label="ico-green"
     style="display:inline"
     transform="translate(-5.9629818,-5.6167747)">
    <path
       style="fill:#009e03;fill-opacity:1;stroke-width:0.157788"
       d="m 132.75371,61.839024 c -0.76163,-0.54472 -0.9633,-2.20099 -1.13689,-9.33675 -0.0996,-4.09411 -0.20134,-5.97449 -0.33724,-6.23262 -0.25649,-0.48719 -0.70767,-1.03065 -2.25507,-2.7163 -0.7068,-0.76995 -1.35003,-1.5155 -1.4294,-1.65677 -0.0794,-0.14127 -0.19247,-0.29236 -0.25135,-0.33575 -0.13717,-0.1011 -2.22209,-2.95048 -2.54,-3.47134 -0.13243,-0.21696 -0.41252,-0.927 -0.62242,-1.57788 -0.32638,-1.01203 -0.37902,-1.46903 -0.36349,-3.15576 0.0167,-1.81509 0.0632,-2.1076 0.58274,-3.66885 0.64338,-1.93332 1.29226,-3.15459 1.63877,-3.08438 0.14314,0.029 0.49371,0.80887 0.90789,2.0196 0.74375,2.17417 1.56426,4.1513 2.32459,5.60147 0.77721,1.48234 2.80405,4.30998 3.5772,4.99053 3.04541,2.68068 6.36517,2.56756 10.71217,-0.36501 1.12434,-0.7585 5.70994,-5.18908 7.13855,-6.89723 l 0.71225,-0.85162 0.33771,1.22988 c -0.0409,0.49351 -0.0688,0.34601 -0.0818,1.34749 -0.0394,3.03401 -0.39647,3.94216 -2.37302,6.03529 -0.59092,0.62577 -1.31649,1.45728 -1.61237,1.84781 -1.05484,1.39227 -3.06181,3.86669 -3.17815,3.9184 -0.21093,0.353597 -0.41964,0.73969 -0.64803,1.02536 -0.60171,0.74714 -1.53944,2.3321 -2.40083,4.0579 -0.32274,0.64661 -1.0291,1.8857 -1.5697,2.75354 -0.5406,0.86783 -1.14273,1.89433 -1.33806,2.2811 -0.62755,1.2426 -3.26172,5.11573 -3.89253,5.72335 -0.72104,0.69453 -1.39752,0.87901 -1.90152,0.51854 z m 30.15751,-23.48938 c -1.17747,-0.38703 -1.95459,-0.93304 -2.49401,-1.75227 -0.7443,-1.13042 -0.9345,-1.83499 -0.84895,-3.14477 0.11961,-1.8311 0.93488,-2.99917 2.64781,-3.79364 0.70206,-0.32562 1.10895,-0.4025 2.13014,-0.4025 1.54119,0 2.5547,0.41317 3.61541,1.47389 2.08529,2.08528 1.32537,5.98109 -1.42001,7.27986 -1.06469,0.50368 -2.67317,0.65407 -3.63039,0.33943 z"
       id="path67-1"
       sodipodi:nodetypes="ssssssssssssssssccsssccsssssssssssss" />
  </g>
  <g
     inkscape:groupmode="layer"
     id="layer3"
     inkscape:label="selbsthilfe"
     style="display:inline"
     transform="translate(-5.9629818,-5.6167747)">
    <path
       d="m 58.612039,22.505432 c -0.409189,-0.07516 -0.912588,-0.596265 -0.781272,-0.808741 0.05198,-0.0841 0.22919,-0.117697 0.393798,-0.07465 0.427714,0.111847 0.891582,-0.182724 1.092168,-0.693569 0.173074,-0.440772 0.817261,-3.903913 0.817261,-4.393583 0,-0.199692 -0.127802,-0.148222 -0.547947,0.220668 -0.581959,0.510968 -1.510935,0.849968 -1.948984,0.711221 -0.652627,-0.206714 -0.966907,-0.445029 -1.140929,-0.865151 -0.103034,-0.248748 -0.21659,-0.45227 -0.252346,-0.45227 -0.03576,0 -0.310655,0.245644 -0.610883,0.545875 -1.058791,1.058788 -2.665717,1.029819 -3.122393,-0.05629 l -0.197181,-0.468959 -0.529738,0.54179 c -1.083625,1.108274 -2.606953,1.009597 -3.113918,-0.201715 -0.228582,-0.546158 -0.22805,-0.732684 0.0062,-2.175262 0.140914,-0.867836 0.255979,-1.844149 0.255701,-2.169586 -5.29e-4,-0.520822 -0.04631,-0.591704 -0.382873,-0.591704 -1.116433,0 -2.71875,2.880061 -2.794601,5.023118 -0.03142,0.887833 -0.289126,1.072706 -1.169532,0.839004 -0.348771,-0.09258 -0.4786,-0.230272 -0.515964,-0.547203 -0.06127,-0.519673 -0.10336,-0.521716 -0.683961,-0.03317 -1.039966,0.87507 -2.346087,0.809543 -3.105423,-0.155797 -0.432355,-0.549654 -0.43801,-1.231123 -0.02889,-3.481894 0.415859,-2.287809 0.416719,-2.27521 -0.155387,-2.27521 -0.610608,0 -0.640813,-0.43066 -0.03945,-0.56243 0.893371,-0.195752 0.842452,-0.10278 0.901809,-1.6465996 0.01246,-0.323667 0.105031,-0.403246 0.515842,-0.44337 0.27537,-0.02689 0.654182,0.03326 0.841806,0.13367 0.300048,0.160581 0.332695,0.284332 0.271061,1.027536 l -0.07007,0.8449646 0.722402,0.04699 c 0.516062,0.03356 0.722403,0.114591 0.722403,0.283668 0,0.173368 -0.215585,0.249232 -0.805884,0.283596 l -0.805884,0.04691 -0.338079,1.934716 c -0.532331,3.046354 -0.465495,3.415144 0.618927,3.415144 0.743807,0 1.354031,-0.47905 1.568487,-1.231321 0.189206,-0.663708 1.576993,-8.6220066 1.576993,-9.0433126 0,-0.587156 1.343692,-0.531175 1.564293,0.06517 0.0698,0.188685 -0.09216,1.534695 -0.391512,3.253838 -0.280802,1.6126196 -0.480409,2.9632536 -0.443568,3.0014096 0.03684,0.03816 0.187899,-0.103854 0.335682,-0.315577 0.750972,-1.075875 2.131827,-1.870559 2.82384,-1.625126 0.160956,0.05709 0.452405,0.247597 0.647668,0.42336 0.443693,0.399383 0.462822,1.136732 0.08732,3.36545 -0.225044,1.335685 -0.235124,1.643806 -0.06067,1.854009 0.331499,0.399434 1.083032,0.312119 1.564931,-0.181816 0.37751,-0.386935 0.46451,-0.702765 0.80351,-2.91692 0.410612,-2.681899 0.449816,-2.754768 1.35237,-2.513643 0.640985,0.171244 0.661443,0.456457 0.224425,3.1285 -0.3048,1.863635 -0.33089,2.275951 -0.157265,2.485157 0.477543,0.575406 1.671947,0.101801 2.040001,-0.808897 0.22163,-0.548397 1.600856,-8.2753466 1.600856,-8.9686156 0,-0.407723 0.07646,-0.528434 0.383519,-0.605502 0.468603,-0.11761 1.169373,0.12891 1.29468,0.455449 0.05073,0.132191 -0.273611,2.333471 -0.720746,4.8917326 -0.895665,5.124482 -0.89448,5.286656 0.03861,5.286656 1.1273,0 1.527734,-0.635469 1.987881,-3.154657 0.417431,-2.285336 0.422323,-2.210133 -0.143764,-2.210133 -0.299416,0 -0.473363,-0.08077 -0.473363,-0.2198 0,-0.240713 0.331374,-0.411351 0.798838,-0.411351 0.183462,0 0.328599,-0.13767 0.374285,-0.3550231 0.04104,-0.1952615 0.148653,-0.7301435 0.239138,-1.1886215 0.305252,-1.546659 1.192707,-2.749021 2.189573,-2.966535 0.231965,-0.05062 0.518117,-0.12229 0.635889,-0.159274 0.409789,-0.128693 1.427823,0.261673 1.749755,0.670944 0.368721,0.468757 0.424789,1.406962 0.108919,1.822717 -0.293759,0.386654 -0.92881,0.59781 -1.252728,0.416534 -0.245965,-0.137647 -0.247775,-0.188651 -0.02217,-0.624893 0.135101,-0.261258 0.223858,-0.737013 0.197233,-1.05723 -0.04399,-0.529072 -0.09104,-0.582216 -0.515485,-0.582216 -0.6409,0 -1.108154,0.73142 -1.334992,2.089746 -0.09791,0.586308 -0.21653,1.257191 -0.263589,1.4908545 -0.0825,0.4096041 -0.05831,0.4265801 0.674471,0.4733641 0.548833,0.03504 0.760037,0.114294 0.760037,0.285202 0,0.174273 -0.218432,0.249259 -0.828387,0.284377 -0.455612,0.02622 -0.828598,0.09724 -0.828855,0.157787 -0.0031,0.72114 -1.80939,9.990497 -2.015379,10.342179 -0.473834,0.808964 -1.351851,1.247997 -2.188501,1.094311 z m 13.407919,-0.117035 c -0.590293,-0.25648 -0.840809,-0.662528 -0.840809,-1.362824 0,-1.092549 1.178227,-2.388656 2.99797,-3.297918 0.390525,-0.195133 0.721463,-0.363807 0.73542,-0.374838 0.01394,-0.01103 0.07325,-0.304069 0.131755,-0.651203 l 0.106381,-0.63115 -0.405014,0.494528 c -0.506153,0.618024 -1.49515,1.03215 -2.151459,0.900887 -0.529331,-0.105865 -1.415053,-0.888129 -1.415053,-1.249764 0,-0.316148 -0.06706,-0.291714 -0.85952,0.313182 -0.883121,0.6741 -1.656874,0.933833 -2.783803,0.934466 -1.926317,0.0011 -3.200818,-1.215425 -3.183641,-3.03877 0.0213,-2.262409 1.624698,-3.970615 3.744862,-3.989665 1.02779,-0.0092 1.733939,0.34929 1.95888,0.994561 0.383302,1.099532 -0.754568,2.172174 -2.928501,2.760631 -1.106411,0.299492 -1.219809,0.508172 -0.728295,1.340236 0.543248,0.91965 2.169541,1.217031 3.457358,0.632212 0.80435,-0.365268 1.164871,-0.85983 1.164871,-1.59796 0,-0.848079 0.410488,-2.068414 0.943057,-2.803607 0.896633,-1.237768 2.652241,-1.726734 3.622955,-1.009057 0.408514,0.30203 0.47511,0.310991 0.659548,0.08876 0.112834,-0.135956 0.372759,-0.31092 0.577612,-0.388803 0.417962,-0.158908 1.182944,-0.02347 1.053193,0.186471 -0.08811,0.142571 -1.017919,5.285126 -1.018104,5.630915 -1.22e-4,0.222645 2.036652,-0.740047 2.312874,-1.093192 0.171315,-0.219025 0.706763,-3.269252 0.732348,-4.171902 0.01746,-0.616088 0.424045,-0.78766 1.213985,-0.512287 0.502928,0.175321 0.508865,0.189154 0.439637,1.023935 -0.0386,0.465416 -0.02883,0.841873 0.0217,0.83657 0.05053,-0.0053 0.304972,-0.307072 0.565425,-0.670599 0.615937,-0.859692 1.747213,-1.448718 2.345515,-1.221243 0.958075,0.364257 0.837229,1.846784 -0.182131,2.234343 -0.499597,0.189947 -0.743479,0.0038 -0.743479,-0.567381 0,-0.659966 -0.393054,-0.678756 -1.010542,-0.04831 -0.934143,0.953755 -1.750747,3.142039 -1.750747,4.691555 0,0.518189 -0.05843,0.620943 -0.402143,0.70721 -0.221179,0.05551 -0.593953,0.0094 -0.828384,-0.102473 -0.338844,-0.161697 -0.442423,-0.340622 -0.50514,-0.872583 l -0.07889,-0.669179 -0.705382,0.468448 c -0.387956,0.257643 -0.894395,0.546735 -1.125413,0.642427 -0.353817,0.146555 -0.462989,0.35252 -0.692513,1.306486 -0.47925,1.991908 -1.346631,3.41082 -2.415714,3.951761 -0.691349,0.349811 -1.485104,0.422174 -2.03067,0.185129 z m 1.215856,-0.877152 c 0.398714,-0.213384 1.029634,-1.323899 1.253376,-2.206128 0.09904,-0.390528 0.217607,-0.838938 0.263477,-0.996474 0.193937,-0.666012 -2.287682,0.977083 -2.710436,1.794598 -0.240152,0.464402 -0.31074,1.279501 -0.126738,1.463503 0.160075,0.160075 0.982075,0.125523 1.320321,-0.0555 z m 1.315934,-5.716911 c 0.38059,-0.499552 1.07034,-2.35834 1.26007,-3.395729 0.11752,-0.642554 -0.315431,-1.140674 -0.991441,-1.140674 -1.120968,0 -2.063351,1.645801 -2.063351,3.603485 0,1.207257 0.147032,1.445728 0.891363,1.445728 0.393063,0 0.603816,-0.119639 0.903359,-0.51281 z m -6.583733,-2.729085 c 0.629047,-0.479795 1.004668,-1.502873 0.690682,-1.881206 -0.696151,-0.838808 -2.513216,0.827202 -2.525297,2.315366 l -0.0035,0.426919 0.659762,-0.232778 c 0.362871,-0.128029 0.893115,-0.410763 1.17832,-0.628301 z m 25.196975,9.395842 c -0.187629,-0.07566 -0.382527,-0.267946 -0.433102,-0.427297 -0.05057,-0.159351 0.120642,-1.495285 0.380487,-2.968741 0.259842,-1.473457 0.47249,-2.722902 0.472548,-2.776538 5.8e-5,-0.05364 -0.251423,0.139698 -0.558847,0.429639 -1.4404,1.358468 -3.214526,0.855067 -3.23623,-0.918266 l -0.0083,-0.676154 -0.267854,0.39447 c -0.58289,0.858431 -1.503055,1.728288 -2.00266,1.893174 -0.629243,0.207669 -1.528786,-0.09529 -1.80272,-0.607137 -0.26393,-0.493157 -0.206764,-1.795844 0.182848,-4.166794 0.381677,-2.322655 0.453425,-2.446589 1.29418,-2.235573 0.713672,0.17912 0.746025,0.482097 0.311748,2.91937 -0.460099,2.582167 -0.428453,2.9859 0.234043,2.9859 0.334544,0 0.565912,-0.149825 0.892424,-0.577908 0.659937,-0.865222 1.457557,-2.825388 1.6746,-4.115366 0.139851,-0.831176 0.266412,-1.166562 0.463865,-1.229231 0.438542,-0.139186 1.103061,0.09942 1.229609,0.441508 0.06526,0.176405 -0.04902,1.301591 -0.258027,2.54069 -0.432356,2.563149 -0.37433,2.940307 0.452363,2.940307 0.375486,0 0.644933,-0.151119 1.074399,-0.60258 0.539779,-0.567426 0.590481,-0.712415 0.86909,-2.48516 0.162727,-1.035418 0.296143,-2.073114 0.296479,-2.30599 7.94e-4,-0.493601 0.409911,-0.661892 1.138748,-0.468331 0.41533,0.1103 0.474623,0.204309 0.544931,0.863963 l 0.07889,0.740195 0.315576,-0.482023 c 0.677445,-1.034759 2.110711,-1.457407 2.989546,-0.881576 0.665066,0.435769 0.946626,1.156089 0.922326,2.359618 -0.0182,0.899748 0.0174,1.06227 0.21568,0.986176 0.13058,-0.05011 0.30015,-0.09111 0.37682,-0.09111 0.0767,0 0.38739,-0.217744 0.69049,-0.483875 0.47604,-0.417968 0.56789,-0.616762 0.67434,-1.45954 0.0678,-0.536614 0.10838,-1.092753 0.0902,-1.23586 -0.0414,-0.326639 0.52318,-0.481997 1.14834,-0.315968 0.41533,0.110299 0.47462,0.204308 0.54493,0.863962 l 0.0789,0.740196 0.31557,-0.482023 c 0.44075,-0.673212 1.25327,-1.141259 1.9812,-1.141259 1.27605,0 1.94882,0.910089 1.92725,2.607085 -0.007,0.58579 0.005,1.065069 0.0273,1.065069 0.0224,0 0.25762,-0.07559 0.52263,-0.16797 0.37289,-0.12999 0.58847,-0.3912 0.95342,-1.155195 0.74062,-1.550496 1.87356,-2.325733 3.41913,-2.339621 1.02779,-0.0092 1.73394,0.34929 1.95888,0.994561 0.3833,1.099532 -0.75457,2.172174 -2.9285,2.760631 -1.10641,0.299492 -1.21981,0.508172 -0.7283,1.340236 0.72867,1.233538 3.07195,1.248879 4.3461,0.02845 0.54891,-0.525761 0.57597,-0.178136 0.0408,0.523564 -0.96812,1.26927 -3.33244,1.768639 -4.86385,1.027298 -0.87371,-0.422958 -1.51155,-1.369015 -1.56928,-2.327599 l -0.0375,-0.622419 -0.67071,0.253852 c -0.55633,0.210563 -0.74159,0.396094 -1.08638,1.087995 -0.88857,1.783124 -2.76215,2.468355 -4.19036,1.532555 l -0.38602,-0.252933 -0.42644,2.484654 c -0.23454,1.36656 -0.42486,2.639632 -0.42293,2.829044 0.004,0.402886 -0.41628,0.582507 -1.01286,0.432774 -0.77182,-0.193712 -0.77698,-0.432681 -0.0944,-4.367192 0.35001,-2.017519 0.67089,-3.817697 0.71306,-4.000397 0.0761,-0.32984 0.0715,-0.329563 -0.65738,0.03945 -0.40373,0.204396 -0.8202,0.371628 -0.92548,0.371628 -0.10528,0 -0.38502,0.395695 -0.621633,0.879322 -0.895183,1.829686 -2.764938,2.53251 -4.213074,1.583653 l -0.386025,-0.252931 -0.426442,2.484652 c -0.234545,1.366559 -0.424865,2.636819 -0.422939,2.822797 0.0051,0.492691 -0.511228,0.652079 -1.205476,0.372121 z m 4.4601,-6.397249 c 0.718203,-0.761522 0.980995,-1.648416 0.634857,-2.142597 -0.350605,-0.50056 -0.32258,-1.134832 0.06567,-1.486191 0.506955,-0.458787 0.344054,-0.930881 -0.340979,-0.988163 -0.48102,-0.04022 -0.639977,0.03418 -1.011396,0.473366 -0.5656,0.668798 -1.096894,1.829742 -1.426472,3.117019 -0.258937,1.011368 -0.258347,1.019922 0.0897,1.301751 0.591542,0.479004 1.380267,0.369861 1.988624,-0.275185 z m 8.04717,0 c 0.71821,-0.761522 0.981,-1.648416 0.63486,-2.142597 -0.3506,-0.50056 -0.32258,-1.134832 0.0657,-1.486191 0.50695,-0.458787 0.34405,-0.930881 -0.34098,-0.988163 -0.48102,-0.04022 -0.63998,0.03418 -1.0114,0.473366 -0.5656,0.668798 -1.09689,1.829742 -1.42647,3.117019 -0.25894,1.011368 -0.25835,1.019922 0.0897,1.301751 0.59154,0.479004 1.38027,0.369861 1.98862,-0.275185 z m 7.58088,-2.998593 c 0.62904,-0.479795 1.00466,-1.502873 0.69068,-1.881206 -0.69615,-0.838808 -2.51322,0.827202 -2.5253,2.315366 l -0.003,0.426919 0.65976,-0.232778 c 0.36287,-0.128029 0.89312,-0.410763 1.17832,-0.628301 z m 52.96619,9.323148 c -1.81865,-0.790197 -0.6398,-3.305895 2.1903,-4.674182 0.77126,-0.372883 0.79664,-0.418979 0.99196,-1.80154 0.0779,-0.551162 0.0635,-0.592469 -0.11294,-0.325933 -0.51445,0.776915 -1.45934,1.667021 -1.93691,1.824636 -0.67604,0.22311 -1.5761,-0.121473 -1.84207,-0.705223 l -0.18514,-0.406326 -0.40692,0.389757 c -0.67186,0.643525 -1.52166,0.927003 -2.15365,0.718424 -1.17207,-0.386819 -1.37063,-1.156177 -0.93567,-3.625473 0.12994,-0.737658 0.23635,-1.541174 0.23646,-1.785593 0,-0.39025 -0.0518,-0.438314 -0.42698,-0.39447 -0.92128,0.10767 -2.15738,2.664965 -2.37063,4.904457 -0.0725,0.761553 -0.1419,0.923703 -0.42568,0.994926 -0.42964,0.107834 -1.17429,-0.169378 -1.29417,-0.48179 -0.0504,-0.131196 0.0978,-1.312352 0.32924,-2.624789 0.23143,-1.312436 0.38317,-2.484242 0.33721,-2.604011 -0.14008,-0.365061 -0.83277,-0.251735 -1.18303,0.193548 -0.78496,0.997916 -1.56157,3.247663 -1.61577,4.680734 -0.0308,0.814115 -0.31177,0.998932 -1.16779,0.768144 -0.43764,-0.117986 -0.46555,-0.172974 -0.45806,-0.902224 0.004,-0.42712 0.0683,-1.233935 0.14213,-1.792926 l 0.13416,-1.016341 -0.42567,0.334833 c -0.23412,0.18416 -0.6369,0.381227 -0.89507,0.43793 -0.34714,0.07625 -0.53222,0.253738 -0.71063,0.681509 -0.97899,2.347262 -4.28131,3.07693 -5.64507,1.247312 -0.39381,-0.528341 -0.53441,-2.097562 -0.27443,-3.063047 0.2806,-1.042059 1.09954,-2.118538 1.93732,-2.546554 0.96115,-0.491051 2.37844,-0.531913 3.14682,-0.09073 0.72413,0.415782 1.24126,1.474094 1.24126,2.540259 0,0.45892 0.0383,0.834398 0.0852,0.834398 0.0468,0 0.34862,-0.134453 0.6706,-0.298786 0.96708,-0.493575 1.14994,-0.803907 1.24952,-2.1205 0.0994,-1.314109 0.27666,-1.490692 1.23668,-1.231869 0.43919,0.118407 0.46604,0.172207 0.46604,0.933977 v 0.808331 l 0.67818,-0.775919 c 0.77318,-0.884619 1.49826,-1.179595 2.25291,-0.916525 0.49884,0.173897 0.93471,0.830522 0.93471,1.408099 0,0.287769 0.0828,0.232834 0.48428,-0.321439 0.87313,-1.205323 2.3187,-1.533854 2.99061,-0.679667 0.37694,0.479194 0.38659,0.903213 0.0637,2.797532 -0.13658,0.801285 -0.22534,1.697638 -0.19724,1.991895 0.0471,0.493106 0.0973,0.538834 0.64059,0.583848 0.45931,0.03805 0.6771,-0.03877 0.98618,-0.347851 0.21819,-0.218178 0.39584,-0.559676 0.3948,-0.758883 -0.002,-0.199208 0.15555,-1.338355 0.34798,-2.531438 0.37708,-2.337684 0.43256,-2.430661 1.31068,-2.196473 0.63491,0.169323 0.67149,0.659423 0.235,3.148253 -0.38234,2.180064 -0.34062,2.716448 0.21121,2.716448 0.19872,0 0.47531,-0.08876 0.61463,-0.197236 0.79245,-0.617006 1.9953,-3.477006 2.06138,-4.901359 0.0376,-0.810644 0.30252,-0.987245 1.14538,-0.76355 0.63454,0.168404 0.6507,0.539496 0.15193,3.486695 -0.22481,1.328375 -0.38554,2.438448 -0.35715,2.466827 0.0995,0.09954 1.93565,-0.893411 2.1308,-1.152319 0.10848,-0.143923 0.19723,-0.483735 0.19723,-0.755139 0,-0.779823 0.42799,-2.018634 0.94306,-2.729662 0.89664,-1.237771 2.65224,-1.726737 3.62296,-1.00906 0.40852,0.30203 0.4751,0.310992 0.65954,0.08876 0.29066,-0.350213 0.886,-0.546491 1.32409,-0.436538 0.30526,0.07662 0.35107,0.156429 0.24918,0.434176 -0.26379,0.719095 -0.84326,4.654875 -0.74373,5.051443 0.0886,0.353023 0.19073,0.416968 0.66604,0.416968 0.64333,0 1.48384,-0.703305 1.48384,-1.241629 0,-0.175543 0.31952,-2.109788 0.71004,-4.298318 0.39053,-2.1885266 0.71005,-4.2083036 0.71005,-4.4883886 0,-0.407726 0.0765,-0.528436 0.38352,-0.605502 0.4686,-0.117612 1.16936,0.128908 1.29468,0.455446 0.0507,0.132194 -0.27361,2.333475 -0.72075,4.8917326 -0.90289,5.165794 -0.90103,5.286659 0.0809,5.286659 0.83951,0 1.32848,-0.567587 1.32848,-1.542072 0,-1.034322 0.36988,-2.21244 0.94305,-3.003674 0.89664,-1.237768 2.65224,-1.726734 3.62297,-1.009057 0.40851,0.30203 0.47509,0.310991 0.65953,0.08876 0.11284,-0.135956 0.37276,-0.310917 0.57762,-0.388803 0.41796,-0.158909 1.18293,-0.02347 1.05318,0.186471 -0.0881,0.14257 -1.0179,5.285126 -1.01809,5.630915 -1.4e-4,0.252926 2.13395,-0.801907 2.2537,-1.113951 0.0466,-0.121468 0.24771,-1.225519 0.44687,-2.453453 0.39015,-2.405337 0.44253,-2.494811 1.32291,-2.259613 0.64098,0.171247 0.66145,0.456457 0.22442,3.1285 -0.3048,1.863635 -0.33089,2.275951 -0.15727,2.48516 0.28652,0.345217 0.99289,0.314386 1.47438,-0.06435 0.35985,-0.283052 0.4,-0.423746 0.39418,-1.380644 -0.0148,-2.424118 1.53624,-4.156204 3.73942,-4.176001 1.0278,-0.0092 1.73394,0.34929 1.95889,0.994561 0.38329,1.099532 -0.75458,2.172174 -2.92852,2.760628 -1.1064,0.299493 -1.21981,0.508172 -0.72828,1.340239 0.72866,1.233538 3.07194,1.248879 4.34609,0.02845 0.54892,-0.525764 0.57598,-0.178138 0.0408,0.523564 -0.96319,1.262798 -3.33277,1.76848 -4.84856,1.034706 -0.40044,-0.193858 -0.84479,-0.530596 -0.98745,-0.748308 l -0.25937,-0.39584 -0.61331,0.631973 c -0.78576,0.80968 -1.6465,1.070983 -2.4382,0.74019 -0.51194,-0.2139 -0.68401,-0.442629 -0.94081,-1.250572 -0.0882,-0.277436 -0.11659,-0.275195 -0.60455,0.04773 -0.2816,0.186365 -0.80678,0.487881 -1.16707,0.670039 -0.61748,0.312182 -0.67052,0.394721 -0.92404,1.437836 -0.37274,1.533543 -0.74574,2.339999 -1.43541,3.103375 -0.64943,0.718841 -1.13306,1.010435 -1.92617,1.161354 -0.63148,0.120158 -1.51206,-0.21236 -1.7526,-0.661797 -0.66611,-1.244653 0.51733,-2.971493 2.82748,-4.125799 0.39053,-0.195133 0.72147,-0.36381 0.73542,-0.374838 0.0139,-0.01103 0.0733,-0.30407 0.13175,-0.651203 l 0.10639,-0.631153 -0.40501,0.49453 c -0.50808,0.620369 -1.49489,1.032201 -2.15633,0.899914 -0.27069,-0.05414 -0.73236,-0.345765 -1.02594,-0.64806 l -0.5338,-0.549627 -0.55207,0.48472 c -0.58553,0.514114 -1.51397,0.853924 -1.95309,0.714838 -0.6552,-0.207529 -0.96729,-0.445955 -1.14487,-0.874641 l -0.19127,-0.461762 -0.58051,0.566857 c -1.15673,1.129517 -2.57525,1.035084 -3.13202,-0.208502 l -0.27724,-0.619234 -0.35908,0.547801 c -0.44268,0.675296 -1.55148,1.209276 -2.18633,1.052889 -0.70304,-0.173186 -1.12151,-0.51843 -1.40374,-1.15814 l -0.26307,-0.596241 -0.64901,0.437573 c -0.35696,0.240665 -0.90932,0.561531 -1.22745,0.713039 -0.45342,0.215926 -0.60059,0.393478 -0.68087,0.821452 -0.21596,1.151149 -0.72506,2.52803 -1.19974,3.244638 -0.82125,1.239877 -2.3749,1.903955 -3.40613,1.455889 z m 1.66029,-1.26605 c 0.2707,-0.308309 0.62424,-1.008327 0.80528,-1.594501 0.47463,-1.536644 0.45361,-1.590061 -0.42675,-1.085271 -1.50979,0.865699 -2.39115,2.008251 -2.18445,2.831828 0.0852,0.339344 0.18932,0.397531 0.71158,0.397531 0.50107,0 0.69913,-0.09946 1.09434,-0.549587 z m 19.75242,0.388898 c 0.39872,-0.213384 1.02963,-1.323899 1.25338,-2.206128 0.099,-0.390528 0.2176,-0.838938 0.26347,-0.996474 0.19394,-0.666012 -2.28769,0.977083 -2.71043,1.794598 -0.24016,0.464402 -0.31075,1.279501 -0.12674,1.463503 0.16008,0.160075 0.98207,0.125523 1.32032,-0.0555 z m -38.07039,-5.032508 c 0.25276,-0.252756 0.58548,-0.859901 0.73939,-1.349208 0.26798,-0.851983 0.26797,-0.902756 -2.7e-4,-1.199251 -0.39744,-0.439179 -0.36474,-1.253969 0.0617,-1.537115 0.42705,-0.283581 0.43725,-0.724226 0.0263,-1.135232 -1.17181,-1.171811 -2.68239,1.014566 -2.68239,3.882424 0,0.956406 0.0569,1.223691 0.31558,1.482366 0.44496,0.444955 1.00304,0.392769 1.53979,-0.143984 z m 27.21366,-0.44772 c 0.52997,-0.602837 1.07388,-1.99136 1.45155,-3.705614 0.125,-0.567304 -0.35999,-1.067472 -1.03506,-1.067472 -0.64016,0 -1.42867,0.81475 -1.77652,1.835637 -0.29907,0.877736 -0.33903,2.749757 -0.0646,3.024233 0.28201,0.282008 1.14667,0.229335 1.42459,-0.08678 z m 12.17267,-0.236683 c 0.38058,-0.499552 1.07034,-2.35834 1.26006,-3.395729 0.11752,-0.642554 -0.31543,-1.140674 -0.99144,-1.140674 -1.12096,0 -2.06335,1.645801 -2.06335,3.603485 0,1.207257 0.14703,1.445728 0.89136,1.445728 0.39307,0 0.60383,-0.119639 0.90337,-0.51281 z m 11.87745,-2.729085 c 0.62904,-0.479795 1.00467,-1.502873 0.69067,-1.881206 -0.69614,-0.838808 -2.51321,0.827202 -2.52528,2.315366 l -0.003,0.426919 0.65975,-0.232778 c 0.36289,-0.128029 0.89312,-0.410763 1.17833,-0.628301 z M 8.5615586,17.399948 C 7.1299521,17.118524 6.285282,16.296977 6.285282,15.185991 c 0,-0.534657 0.087161,-0.747655 0.4247851,-1.038067 0.4320942,-0.371673 0.9546542,-0.463722 1.319221,-0.232378 0.1617152,0.102616 0.1540438,0.220112 -0.038475,0.589288 -0.3774507,0.723802 -0.3040746,1.291556 0.2368272,1.832457 0.4552881,0.455287 0.5312272,0.475925 1.5197936,0.412975 0.9324811,-0.05937 1.0875671,-0.118864 1.4931151,-0.572754 0.350835,-0.392652 0.452556,-0.660356 0.452556,-1.191012 0,-0.873294 -0.343853,-1.254331 -1.9874152,-2.202336 C 7.7414796,11.651208 7.2438997,11.067053 7.2295133,9.8771549 7.2073383,8.0431354 8.7314422,6.7893014 10.984614,6.7879414 c 1.52295,-7.94e-4 2.537628,0.492487 3.03932,1.477928 0.607799,1.193861 0.07901,2.3609086 -1.069733,2.3609086 -0.760707,0 -0.822956,-0.09249 -0.461359,-0.6855091 0.451854,-0.7410365 0.396143,-1.4564305 -0.156448,-2.0090205 -0.39456,-0.39456 -0.582717,-0.461142 -1.30175,-0.460637 -1.1178309,7.94e-4 -1.7867467,0.407831 -2.035698,1.238755 -0.3109563,1.037879 0.1040207,1.6423136 1.853042,2.6990466 0.795745,0.480777 1.601815,1.015981 1.791269,1.189344 1.058428,0.968531 1.046466,2.833227 -0.0245,3.81902 -0.87805,0.80822 -2.6992939,1.249109 -4.0571984,0.982171 z m 8.5893174,-0.0052 c -1.504261,-0.357039 -2.358482,-1.44268 -2.34401,-2.979049 0.02122,-2.252655 1.628778,-3.961345 3.744776,-3.98036 1.027789,-0.0092 1.733939,0.349292 1.958881,0.994563 0.3833,1.099532 -0.75457,2.172174 -2.928503,2.760631 -0.790859,0.214074 -0.997491,0.333658 -0.997491,0.577265 0,0.499809 0.50156,1.201206 1.042535,1.457916 1.075793,0.510497 3.060781,0.103531 3.578736,-0.733722 0.233423,-0.37732 1.691189,-8.3333826 1.690583,-9.2267086 -3.17e-4,-0.393523 0.07872,-0.515546 0.383182,-0.591963 0.468602,-0.117612 1.169373,0.12891 1.294678,0.455449 0.05073,0.132193 -0.273609,2.333471 -0.720745,4.8917326 -0.898746,5.142114 -0.897207,5.286656 0.05624,5.286656 0.633246,0 1.225945,-0.437166 1.303307,-0.961303 0.03084,-0.208942 0.374187,-2.233018 0.762992,-4.497949 0.388806,-2.2649276 0.706919,-4.3341126 0.706919,-4.5981906 0,-0.382995 0.08136,-0.500557 0.402143,-0.58107 0.548818,-0.137742 1.242431,0.220535 1.307048,0.675143 0.04318,0.303799 -0.533689,3.9267416 -0.857036,5.3824816 -0.07338,0.330348 0.01701,0.278937 0.595741,-0.338871 1.852672,-1.9777486 4.191064,-0.753705 3.814105,1.99652 -0.100868,0.735915 -0.09544,0.748509 0.276076,0.640543 0.862284,-0.250584 1.16367,-0.621731 1.246805,-1.535401 0.04339,-0.47689 0.18065,-0.989674 0.30502,-1.139521 0.975873,-1.175784 3.772246,-1.262078 4.76977,-0.147198 0.695701,0.777552 0.203407,1.804368 -0.750321,1.564997 -0.308245,-0.07737 -0.379772,-0.196606 -0.379772,-0.633116 0,-0.973513 -1.188964,-1.525598 -2.024764,-0.940181 -0.282686,0.198001 -0.349065,0.374663 -0.31124,0.828368 0.04551,0.545843 0.115602,0.612595 1.310381,1.247897 1.534414,0.815898 1.970495,1.29967 1.971566,2.187186 0.0016,1.247019 -1.113496,1.989175 -2.999597,1.996562 -1.061915,0.0042 -1.747623,-0.234132 -2.232199,-0.775719 -0.695702,-0.777552 -0.203407,-1.804368 0.750321,-1.564997 0.308279,0.07737 0.379772,0.196596 0.379772,0.633296 0,0.86137 0.748747,1.354781 1.695339,1.117201 0.64193,-0.161113 0.829268,-0.378849 0.829268,-0.963816 0,-0.46358 -0.0893,-0.576443 -0.749493,-0.947225 -0.412221,-0.231516 -1.087374,-0.62248 -1.500339,-0.86881 l -0.750847,-0.447873 -0.590349,0.400627 c -0.324694,0.220345 -0.78362,0.439282 -1.019838,0.486526 -0.315166,0.06304 -0.557019,0.311878 -0.908616,0.934876 -0.872757,1.54644 -2.369955,2.248853 -4.169245,1.956012 -0.973132,-0.158382 -1.112324,-0.216416 -1.624988,-0.6775 l -0.347454,-0.312497 -0.485832,0.4088 c -0.536143,0.451136 -1.457973,0.76385 -1.868447,0.633836 -0.652627,-0.206714 -0.966909,-0.445029 -1.140928,-0.86515 -0.103036,-0.248751 -0.218962,-0.452271 -0.257616,-0.452271 -0.03865,0 -0.300128,0.175313 -0.581055,0.389588 -1.030029,0.785641 -2.486468,1.128482 -3.635459,0.855776 z M 28.580743,16.5833 c 0.2884,-0.195262 0.74268,-0.758327 1.009509,-1.251254 0.477748,-0.882566 0.480933,-0.903386 0.209016,-1.365541 -0.365758,-0.621647 -0.349036,-1.173565 0.04639,-1.531425 0.506063,-0.45798 0.344056,-0.93087 -0.338489,-0.988012 -0.487403,-0.04081 -0.642135,0.03661 -1.087845,0.54424 -0.578625,0.659019 -1.048014,1.627746 -1.364501,2.816064 -0.225879,0.848117 -0.279985,1.854663 -0.108889,2.025759 0.226506,0.226507 1.136706,0.08741 1.634807,-0.249831 z M 18.42261,13.065249 c 0.629046,-0.479795 1.004668,-1.502873 0.690681,-1.881206 -0.69615,-0.838808 -2.513217,0.827202 -2.525296,2.315366 l -0.0035,0.426919 0.659764,-0.232778 c 0.362869,-0.128029 0.893112,-0.410763 1.178317,-0.628301 z m 103.85676,4.326272 c -0.22964,-0.08416 -0.45228,-0.28593 -0.49476,-0.448379 -0.0425,-0.162452 0.26731,-2.27138 0.68843,-4.686507 0.42113,-2.4151296 0.76803,-4.4799006 0.7709,-4.5883776 0.008,-0.307395 -0.9557,-0.235511 -1.52899,0.114036 -0.78059,0.475948 -0.92942,1.645396 -0.25219,1.981634 0.41126,0.2041835 0.29186,0.4634066 -0.32074,0.6963166 -0.65147,0.24769 -1.45176,-0.16819 -1.68529,-0.8757756 -0.15164,-0.459473 -0.1292,-0.641393 0.15033,-1.218824 0.63525,-1.312252 2.23369,-1.772905 5.2611,-1.516193 0.97539,0.08271 2.69649,0.141859 3.82467,0.131445 2.26109,-0.02088 2.36024,0.02704 1.97592,0.954876 -0.41024,0.990394 -1.37816,1.081252 -3.67403,0.344871 -0.84717,-0.271727 -1.63423,-0.494045 -1.74901,-0.494045 -0.14255,0 -0.30583,0.562649 -0.51512,1.775113 l -0.30642,1.7751126 1.38484,0.04537 c 1.22308,0.04007 1.38484,0.07928 1.38484,0.335704 0,0.55926 -0.39827,0.696185 -1.70739,0.58701 l -1.22664,-0.102299 -0.35139,2.091717 c -0.19326,1.150442 -0.34966,2.314196 -0.34754,2.586122 0.003,0.381053 -0.0776,0.516221 -0.35119,0.58955 -0.4225,0.113226 -0.40268,0.114898 -0.93033,-0.07848 z m 6.69498,0.06325 c -0.1923,-0.035 -0.52957,-0.277481 -0.7495,-0.538842 -0.50494,-0.600096 -0.52363,-1.4521 -0.0843,-3.843431 0.17357,-0.944705 0.31558,-1.90868 0.31558,-2.14217 0,-0.473387 0.32715,-0.63347 1.0228,-0.500488 0.70085,0.133977 0.74893,0.538424 0.34226,2.879124 -0.43765,2.518961 -0.38836,2.899742 0.38394,2.966086 0.42929,0.03688 0.63048,-0.04671 0.94951,-0.39447 0.36482,-0.397677 0.47794,-0.877645 1.14521,-4.859325 0.40722,-2.4299326 0.73854,-4.6056256 0.73627,-4.8348736 -0.003,-0.316802 0.0924,-0.441026 0.398,-0.517742 0.54882,-0.137745 1.24243,0.220536 1.30705,0.675143 0.0432,0.303797 -0.53369,3.9267386 -0.85703,5.3824786 -0.0734,0.330351 0.017,0.278937 0.59574,-0.338867 1.85585,-1.9811476 4.19101,-0.753362 3.81297,2.00479 -0.093,0.678759 -0.075,0.74781 0.17064,0.653547 0.15106,-0.05797 0.33739,-0.105399 0.41406,-0.105399 0.0767,0 0.38738,-0.217742 0.69049,-0.483873 0.47604,-0.41797 0.56789,-0.616765 0.67434,-1.45954 0.0678,-0.536614 0.10838,-1.092753 0.0902,-1.235863 -0.0447,-0.352483 0.58224,-0.490712 1.21897,-0.268748 0.50293,0.175321 0.50886,0.189151 0.43964,1.023932 -0.0386,0.465418 -0.0288,0.841875 0.0217,0.836571 0.0505,-0.0053 0.30497,-0.307071 0.56542,-0.670598 0.61594,-0.859694 1.74722,-1.448718 2.34552,-1.221245 0.95807,0.36426 0.83723,1.846784 -0.18213,2.234343 -0.4996,0.189947 -0.74348,0.0038 -0.74348,-0.567378 0,-0.659966 -0.39306,-0.678757 -1.01054,-0.04831 -0.93415,0.953752 -1.75075,3.142038 -1.75075,4.691552 0,0.51049 -0.0606,0.621491 -0.38352,0.702538 -0.48221,0.121028 -1.17057,-0.132027 -1.30383,-0.479317 -0.0898,-0.234024 0.15608,-2.207792 0.36524,-2.93193 0.0665,-0.230119 -0.0268,-0.212066 -0.60136,0.116441 -0.37402,0.213825 -0.79751,0.38963 -0.9411,0.390675 -0.15084,0.0011 -0.46784,0.368293 -0.75083,0.869715 -0.88149,1.561918 -2.37322,2.26889 -4.17028,1.976409 -1.01044,-0.164452 -1.41791,-0.351767 -1.72786,-0.794285 -0.21926,-0.313034 -0.22159,-0.312954 -0.52053,0.01738 -0.53376,0.589796 -1.50913,0.946926 -2.22855,0.815975 z m 5.95544,-0.871489 c 0.2884,-0.195266 0.74268,-0.758328 1.00951,-1.251255 0.47774,-0.882566 0.48093,-0.903386 0.20901,-1.365544 -0.36576,-0.621644 -0.34904,-1.173562 0.0464,-1.531421 0.50607,-0.457984 0.34406,-0.930871 -0.33849,-0.988015 -0.4874,-0.04081 -0.64213,0.03661 -1.08784,0.544242 -0.57863,0.659019 -1.04801,1.627746 -1.3645,2.816064 -0.22588,0.848117 -0.27999,1.854663 -0.10889,2.025759 0.22651,0.226507 1.13671,0.08741 1.63481,-0.24983 z M 53.883771,8.8837534 c -0.640305,-0.23849 -0.550249,-1.297935 0.132231,-1.555586 0.700637,-0.264509 1.35211,0.427869 1.019119,1.083109 -0.226518,0.445731 -0.700715,0.640326 -1.15135,0.472477 z m 141.220179,0 c -0.6403,-0.23849 -0.55025,-1.297935 0.13223,-1.555586 0.70064,-0.264509 1.3521,0.427869 1.01912,1.083109 -0.22652,0.445731 -0.70072,0.640326 -1.15135,0.472477 z"
       style="fill:#1761b6;fill-opacity:1;stroke-width:0.0417481"
       id="path309" />
  </g>
  <g
     inkscape:groupmode="layer"
     id="layer2"
     inkscape:label="stgt-vaih"
     style="display:inline"
     transform="translate(-5.9629818,-5.6167747)">
    <path
       d="m 30.896093,41.47083 c -0.472472,-0.2457 -0.717881,-0.8661 -0.572199,-1.44654 0.159044,-0.63368 1.251194,-1.73263 2.230353,-2.24426 0.474695,-0.24803 0.863251,-0.53391 0.863455,-0.63529 1.59e-4,-0.10139 0.04683,-0.3144 0.103613,-0.47337 0.07767,-0.217452 -0.01027,-0.18405 -0.355023,0.13485 -0.956908,0.88511 -2.098101,0.89603 -2.668484,0.0255 l -0.263724,-0.402495 -0.431675,0.413585 c -0.923664,0.88492 -2.307912,0.83674 -2.790846,-0.0971 l -0.247299,-0.478233 -0.51259,0.496823 c -0.6924,0.6711 -1.486656,0.88221 -2.199134,0.58452 -0.29958,-0.12517 -0.591819,-0.37608 -0.649422,-0.55757 -0.135412,-0.426644 -0.263356,-0.415855 -0.710316,0.0599 -1.014077,1.07944 -2.667442,0.69893 -2.681678,-0.617175 -0.005,-0.462179 -0.0079,-0.46074 -0.755774,0.374255 -0.67854,0.75757 -0.816752,0.83994 -1.436829,0.8562 -0.581658,0.0153 -0.74255,-0.0528 -1.057179,-0.44743 l -0.371107,-0.46541 -0.378805,0.35587 c -0.922259,0.86642 -2.372764,0.71937 -2.787796,-0.2826 -0.179257,-0.432765 -0.166955,-0.785373 0.08462,-2.425673 0.161903,-1.055622 0.297311,-1.954811 0.300905,-1.998202 0.0036,-0.04339 -0.188728,-0.101362 -0.427382,-0.128821 -0.72234,-0.08311 -0.41529,-0.502332 0.367928,-0.502332 0.294665,0 0.363374,-0.251013 0.357328,-1.305402 -0.0021,-0.358066 0.5987,-0.513929 1.049979,-0.272412 0.290506,0.155474 0.336325,0.294857 0.289688,0.88125 l -0.0554,0.696564 h 0.592841 c 0.421778,0 0.592841,0.06829 0.592841,0.236683 0,0.170262 -0.174138,0.236683 -0.620518,0.236683 -0.720167,0 -0.681626,-0.07716 -1.046226,2.094648 -0.295687,1.76132 -0.229203,2.277171 0.310956,2.412754 0.4989,0.12521 1.330929,-0.318905 1.429084,-0.762815 0.25434,-1.150239 0.557856,-3.066659 0.557856,-3.522332 0,-0.430191 0.07257,-0.550034 0.379773,-0.627137 0.513745,-0.128942 1.040635,0.17924 1.038918,0.607666 -7.67e-4,0.192215 -0.130354,1.102614 -0.287963,2.023113 -0.291645,1.703332 -0.238291,2.349945 0.193897,2.349945 0.656037,0 1.941801,-2.482784 2.10547,-4.065633 0.07195,-0.695849 0.144054,-0.845579 0.443355,-0.9207 0.196587,-0.04934 0.514496,-0.0056 0.706466,0.09709 0.385739,0.206441 0.385982,0.17136 -0.01993,2.886517 -0.216721,1.44965 -0.136474,1.871614 0.375102,1.972414 0.135584,0.0267 0.463525,-0.150803 0.72876,-0.394473 0.43336,-0.398129 0.512155,-0.62279 0.777294,-2.216211 0.162275,-0.975238 0.258666,-1.809538 0.214203,-1.854004 -0.04446,-0.04447 -0.246521,-0.08084 -0.449017,-0.08084 -0.202494,0 -0.368171,-0.06341 -0.368171,-0.140907 0,-0.170923 0.389599,-0.332459 0.801845,-0.332459 0.294664,0 0.363374,-0.251013 0.357326,-1.305402 -0.0021,-0.358066 0.598701,-0.513929 1.049979,-0.272412 0.290507,0.155474 0.336325,0.294857 0.289688,0.88125 l -0.0554,0.696564 0.632287,0.02379 c 0.64229,0.02416 1.54967,-0.02492 1.614791,-0.08734 0.01968,-0.01886 0.05518,-0.367763 0.07889,-0.775333 0.04743,-0.81502 0.259463,-0.987107 0.990269,-0.803688 0.395101,0.09916 0.418365,0.154372 0.368442,0.874308 l -0.05329,0.768456 0.591706,-9.8e-5 c 0.420812,-6.9e-5 0.591704,0.06826 0.591704,0.236585 0,0.17026 -0.174136,0.236681 -0.620517,0.236681 -0.454014,0 -0.642896,0.07409 -0.703908,0.276129 -0.234681,0.777129 -0.588667,3.411069 -0.503845,3.749019 0.125797,0.501209 0.707051,0.649039 1.31529,0.33451 0.411681,-0.212892 0.480589,-0.35152 0.575011,-1.1568 0.059,-0.503212 0.190789,-1.194081 0.292857,-1.535261 0.259183,-0.86636 1.148469,-1.751357 1.986105,-1.976528 0.594395,-0.159784 0.765022,-0.143954 1.299703,0.120584 0.490963,0.242909 0.649126,0.263975 0.781788,0.104124 0.217667,-0.262271 0.951637,-0.442925 1.119108,-0.275452 0.07214,0.07214 -0.04464,1.081093 -0.259503,2.242132 -0.542679,2.9324 -0.566717,2.80777 0.437724,2.26949 0.814636,-0.43656 0.831688,-0.460618 1.027244,-1.449128 0.36126,-1.826112 1.00447,-2.683854 2.267651,-3.023995 0.538856,-0.145097 0.731782,-0.125089 1.245754,0.129204 0.517644,0.256109 0.64062,0.26842 0.826323,0.08272 0.119991,-0.119993 0.425979,-0.233254 0.679974,-0.251692 0.556964,-0.04043 0.555519,-0.09989 0.06125,2.521712 -0.298971,1.585761 -0.326935,1.967261 -0.159017,2.169591 0.112056,0.135019 0.308343,0.245489 0.436192,0.245489 0.443553,0 1.093232,-0.615369 1.281038,-1.21339 0.235964,-0.751359 0.650632,-3.401711 0.556218,-3.555066 -0.127251,-0.206688 0.696079,-0.310994 1.032714,-0.130832 0.25455,0.136232 0.330274,0.328433 0.330274,0.838309 v 0.661548 l 0.50101,-0.607808 c 0.275553,-0.334296 0.733687,-0.705033 1.018074,-0.823857 0.944298,-0.394552 1.663599,0.222234 1.318305,1.130427 -0.273394,0.719079 -1.405877,0.93908 -1.180616,0.22934 0.06932,-0.21841 0.01603,-0.349601 -0.17118,-0.421441 -0.686705,-0.26352 -1.904659,1.95267 -2.075725,3.77698 -0.07301,0.77858 -0.136906,0.92279 -0.442939,0.9996 -0.47848,0.12009 -1.018172,-0.18831 -1.018172,-0.58181 0,-0.29901 -0.0332,-0.29274 -0.554292,0.10472 -0.967369,0.73785 -2.107811,0.55558 -2.469078,-0.39462 l -0.15031,-0.395349 -0.388014,0.495789 c -0.805077,1.0287 -2.292832,0.97702 -2.767862,-0.0961 -0.119364,-0.26966 -0.252891,-0.47237 -0.296727,-0.450468 -1.140987,0.570078 -1.908945,1.155418 -1.987312,1.514718 -0.229413,1.05185 -0.723874,2.3187 -1.09483,2.80505 -0.686144,0.89958 -1.997554,1.3596 -2.754199,0.96612 z m 1.475547,-1.06894 c 0.421129,-0.50048 1.017878,-2.12836 0.843968,-2.30227 -0.153914,-0.15391 -1.65263,0.86254 -2.008344,1.36209 -0.308467,0.4332 -0.415348,1.10564 -0.2086,1.31239 0.275775,0.27578 0.990851,0.0819 1.372976,-0.37221 z m -6.458125,-3.964982 c 0.219826,-0.10015 0.512425,-0.354171 0.650221,-0.56447 0.253696,-0.387191 0.87841,-3.598878 0.729075,-3.748214 -0.04458,-0.04458 -0.525968,-0.08106 -1.069747,-0.08106 -1.136024,0 -1.033939,-0.144164 -1.396701,1.972352 -0.304739,1.777971 -0.304333,2.047669 0.0036,2.355541 0.295269,0.295271 0.546565,0.310541 1.083607,0.0659 z m 6.921035,-0.137059 c 0.408577,-0.321392 0.933688,-1.506382 1.207447,-2.724791 0.353025,-1.571206 -1.254117,-1.660117 -2.043369,-0.113051 -0.457968,0.897692 -0.583523,2.256322 -0.254866,2.757911 0.316167,0.482532 0.55657,0.500152 1.090788,0.0799 z m 6.661343,-0.0934 c 0.42605,-0.459711 0.966393,-1.783569 1.119962,-2.743941 0.121748,-0.761359 -0.110212,-1.103735 -0.747791,-1.103735 -0.872739,0 -1.567374,1.112165 -1.680287,2.690275 -0.05948,0.83135 -0.02138,1.088771 0.192857,1.303012 0.372732,0.372731 0.670965,0.333791 1.115259,-0.145611 z m 54.673153,5.264412 c -0.47247,-0.2457 -0.71788,-0.8661 -0.5722,-1.44654 0.15905,-0.63368 1.2512,-1.73264 2.23035,-2.24426 0.4747,-0.24803 0.86326,-0.53392 0.86346,-0.6353 1.6e-4,-0.10138 0.0468,-0.31439 0.10361,-0.47336 0.0777,-0.217453 -0.0103,-0.18406 -0.35502,0.13484 -0.95691,0.88512 -2.0981,0.89604 -2.66848,0.0255 l -0.26373,-0.402486 -0.42427,0.406476 c -0.94336,0.9038 -2.11334,0.87378 -2.57853,-0.0662 -0.2528,-0.510776 -0.25353,-0.651836 -0.0117,-2.245046 0.1952,-1.28601 0.21364,-1.74444 0.0757,-1.882381 -0.64081,-0.64081 -2.20726,1.846141 -2.51656,3.995397 -0.13239,0.91994 -0.31331,1.05606 -1.03759,0.78069 -0.28044,-0.10662 -0.4215,-0.27637 -0.4215,-0.50724 v -0.34698 l -0.35502,0.33257 c -0.80074,0.7501 -1.97788,0.79285 -2.43934,0.0886 l -0.24838,-0.37908 -0.33943,0.31887 c -0.8684,0.81582 -2.04472,0.74239 -2.48904,-0.15537 -0.25281,-0.510777 -0.25354,-0.651837 -0.0117,-2.245047 0.19521,-1.28602 0.21364,-1.74444 0.0757,-1.882381 -0.64081,-0.64081 -2.20725,1.846141 -2.51656,3.995398 -0.13239,0.91993 -0.31331,1.05606 -1.03759,0.78068 -0.28044,-0.10662 -0.42149,-0.27637 -0.42149,-0.50723 v -0.34699 l -0.35502,0.33257 c -0.83263,0.77997 -2.02117,0.79556 -2.45924,0.0323 l -0.24749,-0.43123 -0.59131,0.47519 c -0.99533,0.79986 -2.15144,0.64109 -2.52887,-0.3473 l -0.15311,-0.400956 -0.33116,0.453396 c -0.72719,0.99558 -2.1261,1.06535 -2.73477,0.1364 -0.6273,-0.957376 -0.24007,-3.305246 0.70961,-4.302546 0.79027,-0.829897 1.71432,-1.070046 2.54188,-0.660603 0.51764,0.256111 0.64062,0.268422 0.82632,0.08272 0.11999,-0.119991 0.42598,-0.233254 0.67997,-0.251693 0.55697,-0.04043 0.55552,-0.09989 0.0613,2.521715 -0.29897,1.585761 -0.32693,1.967261 -0.15902,2.169591 0.27259,0.328437 0.57909,0.309257 1.11105,-0.0695 0.49229,-0.350539 0.66549,-0.90954 1.00243,-3.235209 l 0.20574,-1.420095 0.51807,0.02513 c 0.84092,0.04081 0.87768,0.174926 0.56429,2.058294 -0.34516,2.07418 -0.35707,2.55732 -0.0676,2.740559 0.36277,0.229634 0.58498,0.171424 1.09785,-0.287588 0.46642,-0.417452 0.50807,-0.565711 1.09725,-3.905256 0.33684,-1.909233 0.63457,-3.684349 0.66163,-3.944699 0.0386,-0.371205 0.13435,-0.48332 0.4438,-0.519499 0.21704,-0.02537 0.53189,0.05424 0.69967,0.17693 0.3003,0.219583 0.2984,0.260924 -0.12141,2.649635 -0.23456,1.334614 -0.42515,2.478238 -0.42354,2.541389 0.002,0.0632 0.29265,-0.19949 0.64675,-0.583652 0.78551,-0.852178 1.52548,-1.144193 2.13788,-0.843674 0.73772,0.362021 0.78185,0.583567 0.49976,2.508845 -0.14204,0.96947 -0.22188,1.857499 -0.1774,1.973389 0.14628,0.381214 0.69686,0.431654 1.13573,0.104061 0.30608,-0.228481 0.44519,-0.512299 0.5302,-1.08172 0.0634,-0.42459 0.21079,-1.41101 0.32756,-2.19207 l 0.21232,-1.420088 0.51807,0.02514 c 0.84092,0.04081 0.87769,0.174927 0.56429,2.058287 -0.34515,2.07419 -0.35706,2.557319 -0.0676,2.74057 0.36274,0.229599 0.58492,0.171439 1.0985,-0.2876 0.44509,-0.397809 0.51526,-0.604591 0.84332,-2.48516 l 0.35784,-2.05124 0.52196,0.02561 c 0.65123,0.03196 0.81115,0.279186 0.68674,1.061659 l -0.0976,0.61391 0.66754,-0.724201 c 0.80766,-0.876203 1.54412,-1.172412 2.16159,-0.8694 0.73772,0.362021 0.78186,0.583568 0.49977,2.50884 -0.14205,0.969481 -0.22188,1.857499 -0.17741,1.973389 0.14597,0.3804 0.69674,0.43176 1.13347,0.105691 0.33244,-0.2482 0.44912,-0.52565 0.59997,-1.426581 0.32264,-1.926968 0.97801,-2.844027 2.28375,-3.195626 0.54012,-0.145437 0.73171,-0.12513 1.25308,0.132826 0.49097,0.242908 0.64913,0.263977 0.7818,0.104126 0.21766,-0.26227 0.95163,-0.442925 1.1191,-0.275455 0.0721,0.07214 -0.0446,1.081101 -0.2595,2.24213 -0.54525,2.946299 -0.57661,2.811079 0.51662,2.227971 l 0.907284,-0.483941 0.0194,-0.833509 c 0.0474,-2.03568 1.8847,-3.59429 3.67023,-3.1135 1.79651,0.483751 1.14609,2.321168 -1.03624,2.927389 -0.50475,0.140211 -1.01137,0.285221 -1.12584,0.322239 -0.31078,0.100521 -0.0811,0.706652 0.45963,1.212832 0.38029,0.356008 0.60794,0.433918 1.26791,0.433918 0.85429,0 1.92139,-0.46755 2.12769,-0.932229 0.0613,-0.13815 0.265,-1.103239 0.4526,-2.144639 l 0.34107,-1.893453 0.52304,0.02561 c 0.65229,0.03194 0.81227,0.278878 0.68781,1.061664 l -0.0976,0.61391 0.66755,-0.724202 c 0.80765,-0.876207 1.54411,-1.172416 2.16159,-0.869402 0.71293,0.349853 0.77325,0.591836 0.55071,2.208834 -0.11132,0.808768 -0.23724,1.620049 -0.27983,1.802829 -0.0862,0.369872 0.30256,0.851066 0.68752,0.851066 0.13543,0 0.48538,-0.253565 0.77768,-0.563485 0.41779,-0.442981 0.53143,-0.50129 0.53143,-0.272629 0,0.44441 -0.88798,1.423554 -1.46146,1.611494 -0.7686,0.25191 -1.40789,0.0207 -1.72735,-0.62482 -0.25281,-0.510776 -0.25354,-0.651836 -0.0117,-2.245046 0.19521,-1.286021 0.21365,-1.74444 0.0757,-1.882381 -0.64081,-0.64081 -2.20725,1.846141 -2.51656,3.995397 -0.13239,0.91993 -0.31331,1.05607 -1.03759,0.78068 -0.30405,-0.11559 -0.42149,-0.27187 -0.42149,-0.56086 v -0.400604 l -0.5917,0.384944 c -1.53001,0.99538 -3.54592,0.82112 -4.26972,-0.369074 l -0.27163,-0.446652 -1.023154,0.616756 c -1.09345,0.65916 -1.08116,0.64156 -1.51089,2.16445 -0.32295,1.14453 -0.95796,2.11265 -1.60529,2.4474 -0.68615,0.35481 -1.48842,0.4448 -1.92794,0.21624 z m 1.47555,-1.06894 c 0.42113,-0.50048 1.01788,-2.12836 0.84397,-2.30227 -0.15392,-0.15392 -1.65263,0.86253 -2.00835,1.36209 -0.30847,0.4332 -0.41535,1.10564 -0.2086,1.31239 0.27578,0.27578 0.99085,0.0819 1.37298,-0.37221 z m -25.85342,-4.195462 c 0.42605,-0.459722 0.96639,-1.78358 1.11996,-2.743952 0.12175,-0.761359 -0.11021,-1.103733 -0.74779,-1.103733 -0.87274,0 -1.56738,1.112163 -1.68029,2.690284 -0.0595,0.831339 -0.0214,1.08876 0.19286,1.303009 0.37273,0.372723 0.67096,0.333793 1.11526,-0.145608 z m 26.31632,0.0934 c 0.40858,-0.32139 0.93369,-1.50639 1.20745,-2.724799 0.35303,-1.571204 -1.25411,-1.660114 -2.04337,-0.113051 -0.45796,0.897692 -0.58352,2.256322 -0.25486,2.757911 0.31617,0.482532 0.55657,0.500152 1.09078,0.0799 z m 6.321364,-2.10743 c 0.66247,-0.276789 1.20484,-0.962168 1.20484,-1.5225 0,-1.295972 -1.7631,-0.206788 -2.11432,1.306142 -0.11785,0.507698 0.0925,0.557728 0.90948,0.216358 z M 7.5838628,37.382482 c -0.93619,-0.20979 -1.620881,-0.927003 -1.620881,-1.697872 0,-0.728401 0.380627,-1.11683 1.094375,-1.11683 0.433658,0 0.497659,0.0446 0.395956,0.27613 -0.06672,0.15187 -0.151803,0.53214 -0.189071,0.84505 -0.09118,0.765579 0.484384,1.245642 1.493446,1.245642 0.925198,0 1.6233572,-0.639453 1.6233572,-1.486852 0,-0.688949 -0.255032,-0.961549 -1.6794892,-1.79519 -1.422592,-0.832549 -1.809536,-1.264629 -1.907018,-2.129486 -0.110534,-0.980657 0.288992,-1.750346 1.179432,-2.272178 0.581511,-0.340789 0.908264,-0.415589 1.833475,-0.419712 1.7402802,-0.0078 2.7826312,0.726258 2.7826312,1.95951 0,0.751033 -0.620234,1.329031 -1.255152,1.169675 -0.545851,-0.136998 -0.571401,-0.186393 -0.269164,-0.520361 0.41847,-0.462404 0.339333,-1.364356 -0.153737,-1.752206 -1.0283542,-0.808903 -2.7400102,-0.127661 -2.7400102,1.090528 0,0.717579 0.256174,0.992063 1.808772,1.93806 1.4335042,0.873429 1.8733832,1.505331 1.7758822,2.55111 -0.06141,0.658661 -0.168939,0.868489 -0.697971,1.361962 -0.440878,0.41125 -0.868138,0.63541 -1.4482222,0.75982 -0.936091,0.20076 -1.102859,0.2002 -2.026611,-0.007 z m 41.9950312,-0.0406 c -0.844381,-0.36767 -0.951569,-0.919381 -0.610569,-3.142712 0.161901,-1.055611 0.29731,-1.954802 0.300903,-1.998194 0.0036,-0.04339 -0.188727,-0.101362 -0.427382,-0.12882 -0.722341,-0.08311 -0.41529,-0.50233 0.36793,-0.50233 0.294664,0 0.363374,-0.251016 0.357325,-1.305404 -0.0021,-0.358066 0.598702,-0.513927 1.049981,-0.272413 0.290504,0.155475 0.336325,0.294857 0.289687,0.881251 l -0.0554,0.696566 h 0.592839 c 0.42178,0 0.592844,0.06829 0.592844,0.23668 0,0.170262 -0.174138,0.236683 -0.62052,0.236683 -0.720166,0 -0.681625,-0.07716 -1.046226,2.094651 -0.295687,1.76132 -0.229203,2.277171 0.310957,2.412742 0.428686,0.1076 1.271045,-0.272051 1.410608,-0.635753 0.129773,-0.33818 0.430794,-0.305739 0.311872,0.0336 -0.179464,0.51212 -1.058796,1.303741 -1.621996,1.460201 -0.677622,0.18825 -0.608373,0.19209 -1.202854,-0.0668 z m 12.290382,0.0548 c -0.67558,-0.20205 -1.09975,-0.78243 -1.3092,-1.791362 -0.14327,-0.69014 -0.11462,-1.234419 0.16352,-3.10673 0.48575,-3.26975 0.48691,-3.227501 -0.0871,-3.166039 -0.67172,0.07193 -1.18341,0.603105 -1.18341,1.22849 0,0.390996 0.0831,0.540483 0.34685,0.624208 l 0.34685,0.110085 -0.37632,0.304726 c -0.6839,0.553788 -1.73747,0.0073 -1.73747,-0.90128 0,-0.624136 0.51314,-1.304811 1.19999,-1.591799 0.75184,-0.314137 2.61486,-0.457967 3.03305,-0.234159 0.43726,0.234013 0.43431,0.365694 -0.0773,3.444023 -0.47745,2.872986 -0.43198,3.497175 0.29402,4.035954 0.97776,0.725623 2.16023,-0.339439 2.90768,-2.618999 0.35813,-1.092179 0.42722,-1.587651 0.43903,-3.148179 0.0147,-1.941878 0.10826,-2.185572 0.71464,-1.86105 0.64062,0.342847 0.50418,2.050018 -0.36868,4.613209 -1.114,3.271262 -2.51724,4.593922 -4.30617,4.058902 z M 52.19484,34.563859 c 0,-0.48636 0.604813,-0.627248 2.692667,-0.627248 1.785662,0 1.883182,0.01651 1.883182,0.319479 0,0.48636 -0.604811,0.62725 -2.692667,0.62725 -1.785662,0 -1.883182,-0.01651 -1.883182,-0.319481 z m 22.667016,-4.229344 c -0.14362,-0.158705 -0.26113,-0.371718 -0.26113,-0.473363 0,-0.225605 0.57081,-0.815962 0.78894,-0.815962 0.0868,0 0.2998,0.142007 0.47336,0.315574 0.17357,0.173569 0.31558,0.38658 0.31558,0.473366 0,0.231061 -0.59638,0.788937 -0.84338,0.788937 -0.11673,0 -0.32974,-0.129847 -0.47337,-0.288552 z m 9.78285,0 c -0.14362,-0.158705 -0.26113,-0.371718 -0.26113,-0.473363 0,-0.225605 0.57081,-0.815962 0.78894,-0.815962 0.20464,0 0.78894,0.584298 0.78894,0.78894 0,0.231061 -0.59637,0.788937 -0.84338,0.788937 -0.11673,0 -0.32974,-0.129847 -0.47337,-0.288552 z"
       style="fill:#009c00;fill-opacity:1;stroke-width:0.0417481"
       id="path249" />
  </g>
</svg>
